<?xml version="1.0" standalone="no"?>
<!DOCTYPE svg PUBLIC "-//W3C//DTD SVG 1.1//EN" "http://www.w3.org/Graphics/SVG/1.1/DTD/svg11.dtd" >
<svg xmlns="http://www.w3.org/2000/svg" xmlns:xlink="http://www.w3.org/1999/xlink" version="1.1">
<metadata>
Created by FontForge 20200306 at Wed Feb 24 18:48:39 2016
 By convertio
 Copyright (c)2016 Talbot Type. All Rights Reserved
</metadata>
<defs>
<font id="Kaleko105Round-Book" horiz-adv-x="614" >
  <font-face 
    font-family="Kaleko 105 Round"
    font-weight="400"
    font-stretch="normal"
    units-per-em="1000"
    panose-1="2 11 5 3 3 0 0 6 0 4"
    ascent="790"
    descent="-210"
    x-height="579"
    cap-height="758"
    bbox="-46 -212 1296 927"
    underline-thickness="28"
    underline-position="-100"
    unicode-range="U+0020-FB04"
  />
<missing-glyph horiz-adv-x="191" 
 />
    <glyph glyph-name=".notdef" horiz-adv-x="191" 
 />
    <glyph glyph-name=".null" horiz-adv-x="0" 
 />
    <glyph glyph-name="nonmarkingreturn" horiz-adv-x="333" 
 />
    <glyph glyph-name="space" unicode=" " horiz-adv-x="270" 
 />
    <glyph glyph-name="exclam" unicode="!" horiz-adv-x="188" 
d="M70 213l-10 511q0 14 10 24t24 10t24 -10t10 -24l-10 -511q0 -10 -7 -17t-17 -7t-17 7t-7 17zM38 48q0 23 16.5 39.5t39.5 16.5t39.5 -16.5t16.5 -39.5t-16.5 -39.5t-39.5 -16.5t-39.5 16.5t-16.5 39.5z" />
    <glyph glyph-name="quotedbl" unicode="&#x22;" horiz-adv-x="231" 
d="M50 569v166q0 10 6.5 16.5t16.5 6.5t16.5 -6.5t6.5 -16.5v-166q0 -10 -6.5 -16.5t-16.5 -6.5t-16.5 6.5t-6.5 16.5zM135 569v166q0 10 6.5 16.5t16.5 6.5t16.5 -6.5t6.5 -16.5v-166q0 -10 -6.5 -16.5t-16.5 -6.5t-16.5 6.5t-6.5 16.5z" />
    <glyph glyph-name="numbersign" unicode="#" horiz-adv-x="620" 
d="M298 20l54 236h-129l-53 -236q-2 -11 -12 -19.5t-21 -8.5t-17 8.5t-4 19.5l52 236h-129q-11 0 -19 8t-8 19t8 19t19 8h139l28 129h-167q-11 0 -18.5 8t-7.5 19t8 19.5t18 8.5h179l48 236q2 11 12.5 19.5t21.5 8.5t17.5 -8.5t4.5 -19.5l-48 -236h128l48 236
q2 11 12.5 19.5t21.5 8.5t17.5 -8.5t4.5 -19.5l-48 -236h123q11 0 19 -8.5t8 -19.5t-8 -19t-19 -8h-137l-28 -129h165q11 0 19 -8t8 -19t-8 -19t-19 -8h-175l-52 -236q-2 -11 -12.5 -19.5t-21.5 -8.5t-17.5 8.5t-4.5 19.5zM390 439h-129l-27 -129h128z" />
    <glyph glyph-name="dollar" unicode="$" horiz-adv-x="594" 
d="M473 645q-85 55 -179 55q-72 0 -120.5 -38t-48.5 -96q0 -40 18.5 -67t48.5 -40t68 -24t78.5 -17.5t78.5 -22t68 -36.5t48.5 -61.5t18.5 -96.5q0 -87 -61.5 -146t-156.5 -70v-39q0 -15 -11 -26t-26 -11t-26 11t-11 26v39q-118 10 -208 80q-14 9 -14 28q0 14 10 24t24 10
q11 0 20 -6q91 -71 205 -71q79 0 129 41t50 110q0 50 -23.5 82t-61 47.5t-82.5 25.5t-90 22t-82.5 31t-61 58.5t-23.5 98.5q0 78 59.5 133.5t148.5 65.5v39q0 15 11 26t26 11t26 -11t11 -26v-39q90 -8 177 -63q16 -11 16 -29q0 -14 -10 -24t-24 -10q-13 0 -20 6z" />
    <glyph glyph-name="percent" unicode="%" horiz-adv-x="857" 
d="M428 576q0 -79 -57 -135.5t-137 -56.5q-79 0 -136.5 56.5t-57.5 135.5q0 78 58 134.5t136 56.5q80 0 137 -56t57 -135zM817 175q0 -79 -57 -135.5t-137 -56.5q-79 0 -136.5 56.5t-57.5 135.5q0 78 58 134.5t136 56.5q80 0 137 -56t57 -135zM369 576q0 56 -39 95.5
t-96 39.5q-54 0 -94.5 -39.5t-40.5 -95.5t40.5 -96t94.5 -40q57 0 96 39.5t39 96.5zM758 175q0 56 -39 95.5t-96 39.5q-54 0 -94.5 -39.5t-40.5 -95.5t40.5 -96t94.5 -40q57 0 96 39.5t39 96.5zM180 5q-23 16 -8 40l470 700q8 10 19.5 12t20.5 -5q23 -15 8 -40l-471 -699
q-7 -10 -18 -12.5t-21 4.5z" />
    <glyph glyph-name="ampersand" unicode="&#x26;" horiz-adv-x="677" 
d="M623 0h-14q-37 0 -68 23.5t-43 58.5q-34 -45 -85 -72t-111 -27q-108 0 -185 74.5t-77 180.5q0 74 41.5 136.5t108.5 93.5q-67 59 -67 128q0 70 53 120.5t126 50.5t126 -50.5t53 -120.5t-53 -120t-126 -50q-77 0 -131.5 -54.5t-54.5 -133.5q0 -77 54.5 -132t131.5 -55
q78 0 133 55t55 132v137q0 49 35 84t84 35h14q14 0 24 -10t10 -24t-10 -24t-24 -10h-7q-22 0 -37 -15t-15 -36v-256q0 -21 15 -36t37 -15h7q14 0 24 -10t10 -24t-10 -24t-24 -10zM302 494q43 0 73 30t30 72q0 43 -30 73.5t-73 30.5q-42 0 -72.5 -30.5t-30.5 -73.5
q0 -42 30.5 -72t72.5 -30z" />
    <glyph glyph-name="quotesingle" unicode="'" horiz-adv-x="146" 
d="M50 569v166q0 10 6.5 16.5t16.5 6.5t16.5 -6.5t6.5 -16.5v-166q0 -10 -6.5 -16.5t-16.5 -6.5t-16.5 6.5t-6.5 16.5z" />
    <glyph glyph-name="parenleft" unicode="(" horiz-adv-x="280" 
d="M150 289q0 -262 95 -441q8 -16 0.5 -30t-25.5 -14q-19 0 -27 18q-117 216 -117 467q0 252 117 468q8 18 27 18q18 0 25.5 -14t-0.5 -30q-95 -179 -95 -442z" />
    <glyph glyph-name="parenright" unicode=")" horiz-adv-x="280" 
d="M130 289q0 263 -95 442q-8 16 -0.5 30t25.5 14q19 0 27 -18q117 -216 117 -468q0 -251 -117 -467q-8 -18 -27 -18q-18 0 -25.5 14t0.5 30q95 179 95 441z" />
    <glyph glyph-name="asterisk" unicode="*" horiz-adv-x="358" 
d="M270 624q22 -12 10 -35q-5 -9 -15 -11.5t-20 3.5l-48 34l7 -58q0 -11 -7 -18.5t-18 -7.5t-18 7.5t-7 18.5l6 59l-47 -35q-10 -6 -20 -3.5t-15 12.5q-5 9 -2.5 19t12.5 15l54 24l-54 24q-10 5 -12.5 15t2.5 19q5 10 15 12.5t20 -3.5l47 -35l-6 59q0 11 7 18.5t18 7.5
t18 -7.5t7 -18.5l-7 -59l48 35q22 14 36 -9q11 -22 -11 -34l-55 -24z" />
    <glyph glyph-name="plus" unicode="+" horiz-adv-x="679" 
d="M42 289q0 14 10 24t24 10h227v227q0 15 11 26t26 11t26 -11t11 -26v-227h226q14 0 24 -10t10 -24t-10 -23.5t-24 -9.5h-226v-227q0 -15 -11 -26t-26 -11t-26 11t-11 26v227h-227q-14 0 -24 9.5t-10 23.5z" />
    <glyph glyph-name="comma" unicode="," horiz-adv-x="232" 
d="M67 -80q41 0 41 38v37q-8 -3 -17 -3q-23 0 -39.5 16.5t-16.5 39.5t16.5 39.5t39.5 16.5t39.5 -16.5t16.5 -39.5v-90q0 -76 -80 -76q-20 0 -20 19t20 19z" />
    <glyph glyph-name="hyphen" unicode="-" horiz-adv-x="465" 
d="M64 289q0 14 9.5 24t23.5 10h272q14 0 24 -10t10 -24t-10 -23.5t-24 -9.5h-272q-14 0 -23.5 9.5t-9.5 23.5z" />
    <glyph glyph-name="period" unicode="." horiz-adv-x="232" 
d="M35 48q0 23 16.5 39.5t39.5 16.5t39.5 -16.5t16.5 -39.5t-16.5 -39.5t-39.5 -16.5t-39.5 16.5t-16.5 39.5z" />
    <glyph glyph-name="slash" unicode="/" horiz-adv-x="456" 
d="M79 -8q-15 0 -22.5 12t-0.5 28l296 711q5 15 24 15q15 0 22.5 -11.5t2.5 -25.5l-297 -713q-7 -16 -25 -16z" />
    <glyph glyph-name="zero" unicode="0" horiz-adv-x="610" 
d="M558 519v-289q0 -102 -74 -174.5t-178 -72.5q-105 0 -179.5 72.5t-74.5 174.5v289q0 103 74.5 175.5t179.5 72.5q104 0 178 -72.5t74 -175.5zM484 230v289q0 75 -52 128t-126 53t-127 -53t-53 -128v-289q0 -74 53 -127t127 -53q73 0 125.5 53t52.5 127z" />
    <glyph glyph-name="one" unicode="1" horiz-adv-x="342" 
d="M208 30v631l-112 -64q-8 -5 -18 -5q-14 0 -24 9.5t-10 23.5q0 22 20 32l157 94q10 7 24 7q15 0 26 -11t11 -26v-691q0 -15 -11.5 -26.5t-26.5 -11.5t-25.5 11.5t-10.5 26.5z" />
    <glyph glyph-name="two" unicode="2" horiz-adv-x="599" 
d="M61 34q0 16 12 26l345 318q65 54 65 143q0 77 -54 128t-131 51q-76 0 -130 -55t-55 -134q0 -14 -12 -24t-27 -10t-24.5 10t-9.5 24q0 106 75.5 181t182.5 75q109 0 185 -70.5t76 -175.5q0 -57 -26.5 -109t-70.5 -89l-273 -255h307q14 0 24 -10t10 -24t-10 -24t-24 -10
h-401q-14 0 -24 10t-10 24z" />
    <glyph glyph-name="three" unicode="3" horiz-adv-x="595" 
d="M41 196q-4 19 7 31t27 12q13 0 23.5 -9.5t12.5 -22.5q11 -67 63 -112t121 -45q77 0 130.5 54.5t53.5 132.5q0 79 -53.5 133.5t-130.5 54.5q-67 0 -132 -54q-10 -10 -24 -10t-24 10.5t-10 24.5q0 20 14 29l272 257h-266q-14 0 -24 10t-10 24t10 24t24 10h349q14 0 24 -10
t10 -24t-12 -26l-209 -200q114 2 191 -72t77 -181q0 -105 -77 -179.5t-183 -74.5q-95 0 -167 61t-87 152z" />
    <glyph glyph-name="four" unicode="4" horiz-adv-x="613" 
d="M395 29v141h-343q-14 0 -24 10.5t-10 24.5q0 12 9 23l373 514q11 16 32 16q15 0 26 -11t11 -26v-483h80q14 0 24 -10t10 -24t-10 -24t-24 -10h-80v-141q0 -15 -11 -26t-26 -11t-26 11t-11 26zM114 238h281v387z" />
    <glyph glyph-name="five" unicode="5" horiz-adv-x="597" 
d="M96 388l58 330q5 32 33 32h259q14 0 24 -10t10 -24t-10 -24t-24 -10h-226l-42 -225q55 36 118 36q108 0 184.5 -75t76.5 -181q0 -105 -76.5 -179.5t-184.5 -74.5q-107 0 -182.5 74.5t-75.5 179.5q0 14 11 24t25 10t25 -10t11 -24q0 -77 54.5 -132t131.5 -55t131 55
t54 132q0 79 -54 134.5t-131 55.5q-79 0 -133 -62q-11 -14 -30 -14q-16 0 -27.5 11.5t-9.5 25.5z" />
    <glyph glyph-name="six" unicode="6" horiz-adv-x="599" 
d="M300 426q-77 0 -131.5 -55t-54.5 -134q0 -77 54.5 -132t131.5 -55t131 55t54 132q0 79 -54 134t-131 55zM387 704l-145 -216v-2q27 7 59 7q107 0 182.5 -75t75.5 -181q0 -105 -76 -179.5t-183 -74.5q-111 0 -185.5 73t-74.5 181q0 77 45 145l243 361q10 15 29 15
q14 0 24.5 -10t10.5 -24q0 -12 -5 -20z" />
    <glyph glyph-name="seven" unicode="7" horiz-adv-x="539" 
d="M157 27q0 7 4 17l267 638h-372q-14 0 -24 10t-10 24t10 24t24 10h427q14 0 24 -10t10 -24q0 -8 -3 -15l-286 -688q-10 -21 -34 -21q-15 0 -26 10.5t-11 24.5z" />
    <glyph glyph-name="eight" unicode="8" horiz-adv-x="585" 
d="M101 585q0 75 56.5 128.5t135.5 53.5t135.5 -53.5t56.5 -128.5q0 -45 -24 -82.5t-63 -62.5q65 -28 106 -86t41 -128q0 -101 -74 -172t-178 -71t-178 71.5t-75 171.5q0 70 41.5 128t107.5 86q-88 55 -88 145zM116 226q0 -73 52 -124.5t125 -51.5t124.5 51.5t51.5 124.5
q0 74 -51.5 125.5t-124.5 51.5t-125 -51.5t-52 -125.5zM177 585q0 -48 34 -81.5t82 -33.5t82 33.5t34 81.5q0 47 -34 81t-82 34t-82 -34t-34 -81z" />
    <glyph glyph-name="nine" unicode="9" horiz-adv-x="599" 
d="M299 324q77 0 131.5 55t54.5 134q0 77 -54.5 132t-131.5 55t-131 -55t-54 -132q0 -79 54 -134t131 -55zM212 46l145 216v2q-27 -7 -59 -7q-107 0 -182.5 75t-75.5 181q0 105 76 179.5t183 74.5q111 0 185.5 -73t74.5 -181q0 -77 -45 -145l-243 -361q-10 -15 -29 -15
q-14 0 -24.5 10t-10.5 24q0 12 5 20z" />
    <glyph glyph-name="colon" unicode=":" horiz-adv-x="232" 
d="M35 48q0 23 16.5 39.5t39.5 16.5t39.5 -16.5t16.5 -39.5t-16.5 -39.5t-39.5 -16.5t-39.5 16.5t-16.5 39.5zM35 531q0 23 16.5 39.5t39.5 16.5t39.5 -16.5t16.5 -39.5t-16.5 -39.5t-39.5 -16.5t-39.5 16.5t-16.5 39.5z" />
    <glyph glyph-name="semicolon" unicode=";" horiz-adv-x="232" 
d="M35 531q0 23 16.5 39.5t39.5 16.5t39.5 -16.5t16.5 -39.5t-16.5 -39.5t-39.5 -16.5t-39.5 16.5t-16.5 39.5zM67 -80q41 0 41 38v37q-8 -3 -17 -3q-23 0 -39.5 16.5t-16.5 39.5t16.5 39.5t39.5 16.5t39.5 -16.5t16.5 -39.5v-90q0 -76 -80 -76q-20 0 -20 19t20 19z" />
    <glyph glyph-name="less" unicode="&#x3c;" horiz-adv-x="431" 
d="M24 289q0 17 19 32l292 209q9 9 22 9t23.5 -10.5t10.5 -23.5q0 -17 -14 -27l-270 -189l270 -189q14 -11 14 -27q0 -13 -10.5 -23.5t-23.5 -10.5t-22 9l-292 209q-19 15 -19 32z" />
    <glyph glyph-name="equal" unicode="=" horiz-adv-x="679" 
d="M42 374q0 14 10 24t24 10h527q14 -1 24 -11t10 -23q0 -14 -10.5 -23.5t-24.5 -9.5h-526q-14 0 -24 9.5t-10 23.5zM42 205q0 14 9.5 24t23.5 10h528q14 0 24 -10t10 -24t-10 -23.5t-24 -9.5h-528q-14 0 -23.5 9.5t-9.5 23.5z" />
    <glyph glyph-name="greater" unicode="&#x3e;" horiz-adv-x="431" 
d="M407 289q0 -17 -19 -32l-292 -209q-9 -9 -22 -9q-14 0 -24 10.5t-10 23.5q0 16 14 27l270 189l-270 189q-14 10 -14 27q0 13 10 23.5t24 10.5q13 0 22 -9l292 -209q19 -15 19 -32z" />
    <glyph glyph-name="question" unicode="?" horiz-adv-x="595" 
d="M260 208v80q0 15 11 26t26 11q76 0 129 54.5t53 133.5q0 77 -53.5 132t-129.5 55q-68 0 -120 -45t-63 -112q-2 -13 -12.5 -22.5t-24.5 -9.5q-16 0 -27.5 12t-7.5 31q15 91 87 152t168 61q107 0 183 -74.5t76 -179.5q0 -98 -63 -169.5t-158 -84.5v-51q0 -15 -11.5 -26
t-26.5 -11t-25.5 11t-10.5 26zM240 48q0 23 16.5 39.5t39.5 16.5t39.5 -16.5t16.5 -39.5t-16.5 -39.5t-39.5 -16.5t-39.5 16.5t-16.5 39.5z" />
    <glyph glyph-name="at" unicode="@" horiz-adv-x="883" 
d="M600 225q-68 -71 -163 -71q-94 0 -160 64.5t-66 156.5t66 156t160 64q93 0 158.5 -64t65.5 -156v-100q0 -22 14 -37.5t35 -15.5q20 0 35.5 15.5t15.5 37.5v100q0 134 -95 229t-229 95q-133 0 -227 -95t-94 -229q0 -135 94 -230.5t227 -95.5q74 0 145 34q16 8 32 -2
t16 -28q0 -20 -18 -29q-84 -41 -175 -41q-164 0 -280.5 115t-116.5 277t116.5 277t280.5 115t280 -115t116 -277v-102q0 -49 -36 -84t-87 -35q-37 0 -66.5 19.5t-43.5 51.5zM589 375q0 62 -44.5 107t-107.5 45q-62 0 -106 -45t-44 -107q0 -63 44 -108t106 -45q63 0 107.5 45
t44.5 108z" />
    <glyph glyph-name="A" unicode="A" horiz-adv-x="690" 
d="M23 43l286 691q10 24 36 24t36 -24l286 -691q6 -13 0 -28t-20 -20q-14 -6 -28.5 0t-20.5 20l-64 154h-378l-64 -154q-6 -14 -20.5 -20t-28.5 0q-14 5 -20 20t0 28zM345 626l-162 -390h323z" />
    <glyph glyph-name="B" unicode="B" horiz-adv-x="669" 
d="M410 0h-313q-15 0 -26 11t-11 26v676q0 15 11 26t26 11h296q83 0 142.5 -57.5t59.5 -138.5q0 -52 -28 -92t-69 -62v-2q54 -22 92.5 -72t38.5 -113q0 -88 -64 -150.5t-155 -62.5zM553 213q0 60 -42 102.5t-101 42.5h-276v-290h276q59 0 101 42.5t42 102.5zM134 426h259
q52 0 89 37.5t37 90.5t-37 90.5t-89 37.5h-259v-256z" />
    <glyph glyph-name="C" unicode="C" horiz-adv-x="751" 
d="M708 650q10 -10 10.5 -24t-9.5 -24q-11 -10 -24.5 -10t-23.5 10q-101 98 -230 98q-135 0 -228.5 -95.5t-92.5 -230.5q-1 -135 92.5 -229.5t228.5 -94.5q131 0 230 94q10 9 24 9t24 -10t9.5 -23.5t-10.5 -23.5q-118 -114 -278 -113q-163 -1 -279.5 114t-116.5 277
q0 163 116.5 278.5t279.5 114.5q160 1 278 -117z" />
    <glyph glyph-name="D" unicode="D" horiz-adv-x="726" 
d="M60 37v676q0 15 11.5 26t26.5 11h218q155 0 265 -110t110 -265t-110 -265t-265 -110h-219q-15 0 -26 11t-11 26zM615 375q0 128 -87 217.5t-212 89.5h-188v-614h188q125 0 212 90t87 217z" />
    <glyph glyph-name="E" unicode="E" horiz-adv-x="641" 
d="M60 37v676q0 15 11 26t26 11h475q14 0 24 -10t10 -24t-10 -24t-24 -10h-438v-274h369q14 0 24 -10t10 -24t-10 -24t-24 -10h-369v-272h438q14 -1 24 -11t10 -23q0 -14 -10 -24t-24 -10h-475q-15 0 -26 11t-11 26z" />
    <glyph glyph-name="F" unicode="F" horiz-adv-x="603" 
d="M60 29v684q0 15 11 26t26 11h457q14 0 24 -10t10 -24t-10 -24t-24 -10h-420v-274h351q14 0 24 -10t10 -24t-10 -24t-24 -10h-351v-311q0 -15 -11 -26t-26 -11t-26 11t-11 26z" />
    <glyph glyph-name="G" unicode="G" horiz-adv-x="785" 
d="M431 408h264q14 0 24 -10t10 -24v-241q0 -12 -9 -23q-117 -128 -289 -127q-107 0 -198.5 52t-144.5 142.5t-53 197.5q0 162 116 277t280 115q161 0 279 -116q10 -11 10 -24.5t-10 -23.5q-10 -11 -24 -11t-24 11q-102 97 -230 97q-135 0 -228.5 -95t-92.5 -230
q-1 -135 92.5 -230t228.5 -95q126 0 223 91v199h-224q-14 0 -24.5 10t-10.5 24t10.5 24t24.5 10z" />
    <glyph glyph-name="H" unicode="H" horiz-adv-x="699" 
d="M60 29v692q0 15 11 26t26 11t26 -11t11 -26v-313h431v313q0 15 11 26t26 11t26 -11t11 -26v-692q0 -15 -11 -26t-26 -11t-26 11t-11 26v311h-431v-311q0 -15 -11 -26t-26 -11t-26 11t-11 26z" />
    <glyph glyph-name="I" unicode="I" horiz-adv-x="194" 
d="M60 29v692q0 15 11 26t26 11t26 -11t11 -26v-692q0 -15 -11 -26t-26 -11t-26 11t-11 26z" />
    <glyph glyph-name="J" unicode="J" horiz-adv-x="435" 
d="M301 722q0 14 11 25.5t25 11.5q15 0 26.5 -11.5t11.5 -25.5v-533q0 -90 -59.5 -147.5t-144.5 -58.5q-84 0 -145 61q-11 10 -11 24.5t10 24.5q10 11 24.5 10t27.5 -14q41 -39 94 -39q55 0 92.5 38t38.5 100z" />
    <glyph glyph-name="K" unicode="K" horiz-adv-x="589" 
d="M60 29v692q0 16 10.5 26.5t26.5 10.5t26.5 -10.5t10.5 -26.5v-306l376 332q10 11 25.5 11t26.5 -11q11 -12 11.5 -28t-10.5 -26l-366 -318l365 -319q12 -10 11.5 -25.5t-11.5 -27.5q-10 -11 -25.5 -11t-26.5 11l-376 333v-307q0 -16 -10.5 -26.5t-26.5 -10.5t-26.5 10.5
t-10.5 26.5z" />
    <glyph glyph-name="L" unicode="L" horiz-adv-x="586" 
d="M60 34v687q0 15 11 26t26 11t26 -11t11 -26v-653h403q14 0 24 -10t10 -24t-10 -24t-24 -10h-443q-14 0 -24 10t-10 24z" />
    <glyph glyph-name="M" unicode="M" horiz-adv-x="870" 
d="M435 438l312 311q10 10 26 10q15 0 26 -11t11 -26v-693q0 -16 -10.5 -26.5t-26.5 -10.5t-26.5 10.5t-10.5 26.5v604l-275 -276q-10 -10 -26 -10t-26 10l-275 276v-604q0 -16 -10.5 -26.5t-26.5 -10.5t-26.5 10.5t-10.5 26.5v693q0 15 11 26t26 11q16 0 26 -10z" />
    <glyph glyph-name="N" unicode="N" horiz-adv-x="702" 
d="M605 758q16 0 26.5 -10.5t10.5 -26.5v-692q0 -16 -11 -26.5t-27 -10.5q-20 0 -31 16l-439 602v-581q0 -16 -10.5 -26.5t-26.5 -10.5t-26.5 10.5t-10.5 26.5v692q0 16 11 26.5t26 10.5q21 0 30 -14l441 -604v581q0 16 10.5 26.5t26.5 10.5z" />
    <glyph glyph-name="O" unicode="O" horiz-adv-x="862" 
d="M751 375q0 135 -93.5 230t-226.5 95t-226.5 -95t-93.5 -230t93.5 -230t226.5 -95t226.5 95t93.5 230zM827 375q0 -162 -116 -277t-280 -115t-280 115t-116 277t116 277t280 115t280 -115t116 -277z" />
    <glyph glyph-name="P" unicode="P" horiz-adv-x="658" 
d="M60 713q0 16 11 26.5t27 10.5h287q98 0 168 -70t70 -169q0 -98 -70 -168t-168 -70h-251v-244q0 -16 -10.5 -26.5t-26.5 -10.5t-26.5 10.5t-10.5 26.5v684zM547 511q0 71 -47 121t-115 50h-251v-341h251q68 0 115 49.5t47 120.5z" />
    <glyph glyph-name="Q" unicode="Q" horiz-adv-x="864" 
d="M828 374q0 -137 -93 -250l99 -99q10 -10 9.5 -24t-11.5 -25q-10 -10 -24 -10.5t-23 8.5l-102 98q-110 -90 -251 -89q-163 -1 -279.5 114t-116.5 277q-1 162 115.5 277.5t280.5 115.5t280.5 -115.5t115.5 -277.5zM752 374q0 135 -93 231t-227 95q-134 1 -227 -95t-93 -231
q0 -87 40.5 -159.5t110.5 -115.5q-13 31 -14 65q0 76 54 129.5t129 53.5q81 0 130 -52l124 -122q66 81 66 201zM432 49q114 0 201 71l-123 123q-36 38 -78 38q-47 0 -80 -34.5t-33 -82.5q0 -47 33 -81t80 -34z" />
    <glyph glyph-name="R" unicode="R" horiz-adv-x="663" 
d="M521 13l-127 260h-260v-244q0 -16 -10.5 -26.5t-26.5 -10.5t-26.5 10.5t-10.5 26.5v684q0 16 11 26.5t27 10.5h287q98 0 168 -70t70 -169q0 -75 -43 -136t-112 -87l119 -243q7 -14 2 -28.5t-19 -20.5q-14 -7 -28 -2t-21 19zM547 511q0 71 -47 121t-115 50h-251v-341h251
q68 0 115 49.5t47 120.5z" />
    <glyph glyph-name="S" unicode="S" horiz-adv-x="594" 
d="M473 645q-85 55 -179 55q-72 0 -120.5 -38t-48.5 -96q0 -40 18.5 -67t48.5 -40t68 -24t78.5 -17.5t78.5 -22t68 -36.5t48.5 -61.5t18.5 -96.5q0 -96 -73.5 -157t-181.5 -61q-137 0 -245 82q-14 9 -14 28q0 14 10 24t24 10q11 0 20 -6q91 -71 205 -71q79 0 129 41t50 110
q0 50 -23.5 82t-61 47.5t-82.5 25.5t-90 22t-82.5 31t-61 58.5t-23.5 98.5q0 86 71 143.5t171 57.5q116 0 217 -65q16 -11 16 -29q0 -14 -10 -24t-24 -10q-13 0 -20 6z" />
    <glyph glyph-name="T" unicode="T" horiz-adv-x="598" 
d="M263 29v653h-219q-14 0 -24 10t-10 24t10 24t24 10h510q14 0 24 -10t10 -24t-10 -24t-24 -10h-217v-653q0 -15 -11 -26t-26 -11t-26 11t-11 26z" />
    <glyph glyph-name="U" unicode="U" horiz-adv-x="699" 
d="M565 273v448q0 15 11 26t26 11t26 -11t11 -26v-448q0 -120 -85 -205t-204 -85q-120 0 -205 85t-85 205v448q0 15 11 26t26 11t26 -11t11 -26v-448q0 -93 62 -158t154 -65q91 0 153 65t62 158z" />
    <glyph glyph-name="V" unicode="V" horiz-adv-x="680" 
d="M87 735l253 -611l253 611q6 14 20.5 20t28.5 0q14 -5 20 -20t0 -28l-286 -691q-10 -24 -36 -24t-36 24l-286 691q-6 13 0 28t20 20q14 6 28.5 0t20.5 -20z" />
    <glyph glyph-name="W" unicode="W" horiz-adv-x="953" 
d="M653 18l-177 580l-176 -580q-8 -26 -36.5 -26t-36.5 26l-211 692q-4 14 3.5 27.5t21.5 18.5q14 4 27.5 -3.5t18.5 -21.5l177 -589l177 589q7 25 35.5 25t35.5 -25l177 -589l177 589q5 14 18.5 21.5t27.5 3.5q14 -5 21.5 -18.5t3.5 -27.5l-211 -692q-8 -26 -36.5 -26
t-36.5 26z" />
    <glyph glyph-name="X" unicode="X" horiz-adv-x="634" 
d="M38 -2q-12 9 -14.5 24.5t6.5 27.5l233 325l-233 325q-9 12 -6.5 27.5t14.5 24.5q13 8 28.5 5.5t23.5 -14.5l227 -324l227 324q8 12 23.5 14.5t28.5 -5.5q12 -9 14.5 -24.5t-6.5 -27.5l-233 -325l233 -325q9 -12 6.5 -27.5t-14.5 -24.5q-13 -8 -28.5 -5.5t-23.5 14.5
l-227 324l-227 -324q-8 -12 -23.5 -14.5t-28.5 5.5z" />
    <glyph glyph-name="Y" unicode="Y" horiz-adv-x="626" 
d="M313 -8q-15 0 -26 11t-11 26v322l-254 349q-9 12 -6.5 27.5t14.5 24.5q13 8 28.5 5.5t23.5 -14.5l231 -324l231 324q8 12 23.5 14.5t28.5 -5.5q12 -9 14.5 -24.5t-6.5 -27.5l-254 -349v-322q0 -15 -11 -26t-26 -11z" />
    <glyph glyph-name="Z" unicode="Z" horiz-adv-x="641" 
d="M619 34q0 -14 -10 -24t-24 -10h-529q-14 0 -24 10t-10 24q0 12 8 22l481 626h-455q-14 0 -24 10t-10 24t10 24t24 10h529q14 0 24 -10t10 -24q0 -12 -8 -22l-481 -626h455q14 0 24 -10t10 -24z" />
    <glyph glyph-name="bracketleft" unicode="[" horiz-adv-x="281" 
d="M154 682v-785h71q14 0 24 -10t10 -24t-10 -24t-24 -10h-108q-15 0 -26 11t-11 26v847q0 15 11 26t26 11h108q14 0 24 -10t10 -24t-10 -24t-24 -10h-71z" />
    <glyph glyph-name="backslash" unicode="\" horiz-adv-x="456" 
d="M377 -8q-18 0 -25 16l-297 713q-5 14 2.5 25.5t22.5 11.5q19 0 24 -15l296 -711q7 -16 -0.5 -28t-22.5 -12z" />
    <glyph glyph-name="bracketright" unicode="]" horiz-adv-x="281" 
d="M127 -103v785h-71q-14 0 -24 10t-10 24t10 24t24 10h108q15 0 26 -11t11 -26v-847q0 -15 -11 -26t-26 -11h-108q-14 0 -24 10t-10 24t10 24t24 10h71z" />
    <glyph glyph-name="asciicircum" unicode="^" horiz-adv-x="539" 
d="M70 358q-28 18 -13 46l183 336q10 18 29 18t30 -18l183 -336q15 -28 -13 -46q-30 -14 -45 14l-155 291l-154 -291q-15 -28 -45 -14z" />
    <glyph glyph-name="underscore" unicode="_" horiz-adv-x="519" 
d="M0 -91h579v-25h-579v25z" />
    <glyph glyph-name="grave" unicode="`" horiz-adv-x="391" 
d="M304 684q-9 -20 -30 -14l-162 42q-16 4 -23 19.5t-1 31.5q5 16 20 23t31 0l151 -72q22 -12 14 -30z" />
    <glyph glyph-name="a" unicode="a" horiz-adv-x="724" 
d="M590 29v88h-2q-89 -134 -242 -134q-128 0 -217 89.5t-89 217.5q0 127 89 216.5t217 89.5q154 0 242 -134h2v88q0 15 11 26t26 11t26 -11t11 -26v-521q0 -15 -11 -26t-26 -11t-26 11t-11 26zM590 290q0 99 -70 169t-168 70q-99 0 -167.5 -70t-68.5 -169q0 -100 68.5 -170
t167.5 -70q98 0 168 70t70 170z" />
    <glyph glyph-name="b" unicode="b" horiz-adv-x="724" 
d="M134 117v-88q0 -15 -11 -26t-26 -11t-26 11t-11 26v692q0 15 11 26t26 11t26 -11t11 -26v-259h2q88 134 242 134q128 0 217 -89.5t89 -216.5q0 -128 -89 -217.5t-217 -89.5q-153 0 -242 134h-2zM134 290q0 -100 70 -170t168 -70q99 0 167.5 70t68.5 170q0 99 -68.5 169
t-167.5 70q-98 0 -168 -70t-70 -169z" />
    <glyph glyph-name="c" unicode="c" 
d="M521 454q-75 74 -169 75q-97 0 -166.5 -70.5t-69.5 -168.5q0 -99 69.5 -169.5t166.5 -70.5q94 0 170 76q10 9 23.5 8t23.5 -11t10.5 -25t-9.5 -24q-94 -91 -218 -91q-129 0 -220.5 90t-91.5 217t92 216.5t220 89.5q125 0 218 -91q9 -10 9.5 -25t-9.5 -25t-24 -10.5
t-25 9.5z" />
    <glyph glyph-name="d" unicode="d" horiz-adv-x="724" 
d="M590 29v88h-2q-89 -134 -242 -134q-128 0 -217 89.5t-89 217.5q0 127 89 216.5t217 89.5q154 0 242 -134h2v259q0 15 11 26t26 11t26 -11t11 -26v-692q0 -15 -11 -26t-26 -11t-26 11t-11 26zM590 290q0 99 -70 169t-168 70q-99 0 -167.5 -70t-68.5 -169q0 -100 68.5 -170
t167.5 -70q98 0 168 70t70 170z" />
    <glyph glyph-name="e" unicode="e" horiz-adv-x="699" 
d="M659 290q0 -14 -10.5 -24t-24.5 -10h-509q13 -88 79 -147t155 -59q59 0 109.5 27t82.5 74q10 17 29 17q21 0 30.5 -19t-1.5 -35q-37 -56 -104 -93.5t-146 -37.5q-128 0 -218.5 90t-90.5 217t90.5 216.5t218.5 89.5q127 0 217.5 -89t92.5 -217zM115 324h469
q-13 87 -79.5 146t-155.5 59t-155 -59t-79 -146z" />
    <glyph glyph-name="f" unicode="f" horiz-adv-x="335" 
d="M12 545q0 14 10 24t24 10h42v56q0 62 41.5 97t100.5 35q30 0 62.5 -14.5t32.5 -38.5q0 -14 -9.5 -23.5t-23.5 -9.5q-13 0 -23 8q-15 11 -40 11q-67 0 -67 -65v-56h93q14 0 24 -10t10 -24t-10 -24t-24 -10h-93v-482q0 -15 -11 -26t-26 -11t-26 11t-11 26v482h-42
q-14 0 -24 10t-10 24z" />
    <glyph glyph-name="g" unicode="g" horiz-adv-x="723" 
d="M112 -103q0 18 16.5 29.5t33.5 1.5q91 -49 190 -49q110 0 173 43t63 155v33q-38 -56 -99.5 -91.5t-136.5 -35.5q-129 0 -220.5 90t-91.5 217t91.5 216.5t220.5 89.5q149 0 237 -134v88q0 15 10.5 26t25.5 11t26.5 -11t11.5 -26v-473q0 -135 -86 -200t-225 -65
q-112 0 -222 55q-18 9 -18 30zM589 290q0 99 -69 169t-168 70q-98 0 -167 -70t-69 -169q0 -100 69 -170t167 -70q99 0 168 70t69 170z" />
    <glyph glyph-name="h" unicode="h" 
d="M97 -8q-15 0 -26 11t-11 26v692q0 15 11 26t26 11t26 -11t11 -26v-240h2q21 45 76 80t117 35q104 0 164.5 -63.5t60.5 -167.5v-336q0 -15 -11 -26t-26 -11t-26 11t-11 26v336q0 74 -43 119.5t-114 45.5q-72 0 -130.5 -51.5t-58.5 -121.5v-328q0 -15 -11 -26t-26 -11z" />
    <glyph glyph-name="i" unicode="i" horiz-adv-x="194" 
d="M60 29v521q0 15 11 26t26 11t26 -11t11 -26v-521q0 -15 -11 -26t-26 -11t-26 11t-11 26zM46 716q0 21 15 36t36 15t36 -15t15 -36t-15 -36t-36 -15t-36 15t-15 36z" />
    <glyph glyph-name="j" unicode="j" horiz-adv-x="257" 
d="M197 550v-606q0 -62 -40.5 -97t-101.5 -35q-30 0 -62.5 14.5t-32.5 38.5q0 14 9.5 23.5t23.5 9.5q13 0 23 -8q17 -12 40 -12q67 0 67 66v606q0 15 11 26t26 11t26 -11t11 -26zM109 716q0 21 15 36t36 15t36 -15t15 -36t-15 -36t-36 -15t-36 15t-15 36z" />
    <glyph glyph-name="k" unicode="k" horiz-adv-x="510" 
d="M60 29v692q0 15 11 26t26 11t26 -11t11 -26v-386l291 244q11 10 26.5 8.5t25.5 -12.5q10 -12 8 -27t-13 -25l-284 -233l284 -233q11 -10 13 -25t-8 -27q-10 -11 -25.5 -12.5t-26.5 8.5l-291 244v-216q0 -15 -11 -26t-26 -11t-26 11t-11 26z" />
    <glyph glyph-name="l" unicode="l" horiz-adv-x="194" 
d="M60 29v692q0 15 11 26t26 11t26 -11t11 -26v-692q0 -15 -11 -26t-26 -11t-26 11t-11 26z" />
    <glyph glyph-name="m" unicode="m" horiz-adv-x="870" 
d="M134 550v-43h2q50 89 139 89q110 0 172 -95q29 43 73.5 69t95.5 26q84 0 139 -55t55 -139v-373q0 -15 -11 -26t-26 -11t-26 11t-11 26v373q0 56 -37 92t-93 36q-57 0 -95.5 -40.5t-38.5 -97.5v-363q0 -15 -11 -26t-26 -11t-26 11t-11 26v363q0 58 -38 98t-95 40
q-55 0 -93 -39t-38 -94v-368q0 -15 -11 -26t-26 -11t-26 11t-11 26v521q0 15 11 26t26 11t26 -11t11 -26z" />
    <glyph glyph-name="n" unicode="n" 
d="M97 -8q-15 0 -26 11t-11 26v521q0 15 11 26t26 11t26 -11t11 -26v-69h2q21 45 76 80t117 35q104 0 164.5 -63.5t60.5 -167.5v-336q0 -15 -11 -26t-26 -11t-26 11t-11 26v336q0 74 -43 119.5t-114 45.5q-72 0 -130.5 -51.5t-58.5 -121.5v-328q0 -15 -11 -26t-26 -11z" />
    <glyph glyph-name="o" unicode="o" horiz-adv-x="704" 
d="M352 50q99 0 167.5 70.5t68.5 169.5t-68.5 169t-167.5 70q-97 0 -166.5 -70.5t-69.5 -168.5q0 -99 69.5 -169.5t166.5 -70.5zM352 -17q-129 0 -220.5 90t-91.5 217t92 216.5t220 89.5q129 0 220.5 -89.5t91.5 -216.5t-91.5 -217t-220.5 -90z" />
    <glyph glyph-name="p" unicode="p" horiz-adv-x="724" 
d="M134 550v-88h2q89 134 242 134q128 0 217 -89.5t89 -217.5q0 -127 -89 -216.5t-217 -89.5q-154 0 -242 134h-2v-259q0 -15 -11 -26t-26 -11t-26 11t-11 26v692q0 15 11 26t26 11t26 -11t11 -26zM134 289q0 -99 70 -169t168 -70q99 0 167.5 70t68.5 169q0 100 -68.5 170
t-167.5 70q-98 0 -168 -70t-70 -170z" />
    <glyph glyph-name="q" unicode="q" horiz-adv-x="724" 
d="M590 462v88q0 15 11 26t26 11t26 -11t11 -26v-692q0 -15 -11 -26t-26 -11t-26 11t-11 26v259h-2q-88 -134 -242 -134q-128 0 -217 89.5t-89 216.5q0 128 89 217.5t217 89.5q153 0 242 -134h2zM590 289q0 100 -70 170t-168 70q-99 0 -167.5 -70t-68.5 -170
q0 -99 68.5 -169t167.5 -70q98 0 168 70t70 169z" />
    <glyph glyph-name="r" unicode="r" horiz-adv-x="374" 
d="M134 551v-57h2q22 43 60.5 72.5t87.5 29.5q25 0 55 -8q27 -6 27 -35q0 -14 -10.5 -24.5t-22.5 -8.5q-1 0 -16.5 3t-32.5 3q-61 0 -105.5 -49.5t-44.5 -114.5v-333q0 -15 -10.5 -26t-25.5 -11t-26.5 11t-11.5 26v521q0 15 11 26t26 11t26 -10.5t11 -25.5z" />
    <glyph glyph-name="s" unicode="s" horiz-adv-x="549" 
d="M422 490q-82 39 -153 39q-64 0 -100.5 -23t-36.5 -62q0 -45 28 -69.5t70 -30.5t90.5 -14.5t90.5 -20.5t70 -49.5t28 -100.5q0 -83 -64 -129.5t-174 -46.5q-117 0 -215 60q-16 10 -16 30q0 21 17.5 31t34.5 0q94 -54 179 -54q77 0 120.5 29t43.5 83q0 38 -21 60.5
t-54 31.5t-73 14t-80.5 12.5t-73.5 23t-54 50t-21 88.5q0 76 59.5 115t151.5 39q101 0 185 -46q21 -10 21 -31q0 -20 -17.5 -29.5t-35.5 0.5z" />
    <glyph glyph-name="t" unicode="t" horiz-adv-x="329" 
d="M12 545q0 14 10 24t24 10h42v102q0 15 11 26t26 11t26 -11t11 -26v-102h93q14 0 24 -10t10 -24t-10 -24t-24 -10h-93v-399q0 -58 59 -58q14 0 32 12q11 8 23 8q14 0 23.5 -9.5t9.5 -23.5q0 -24 -30 -38.5t-57 -14.5q-58 0 -96 32.5t-38 91.5v399h-42q-14 0 -24 10t-10 24
z" />
    <glyph glyph-name="u" unicode="u" 
d="M517 587q15 0 26 -11t11 -26v-521q0 -15 -11 -26t-26 -11t-26 11t-11 26v69h-2q-21 -45 -76 -80t-117 -35q-104 0 -164.5 63.5t-60.5 167.5v336q0 15 11 26t26 11t26 -11t11 -26v-336q0 -74 43 -119.5t114 -45.5q72 0 130.5 51.5t58.5 121.5v328q0 15 11 26t26 11z" />
    <glyph glyph-name="v" unicode="v" horiz-adv-x="584" 
d="M569 535l-243 -521q-9 -22 -34 -22t-34 22l-243 521q-7 13 -2 27.5t19 21.5q13 6 27.5 0.5t21.5 -19.5l211 -461l211 461q7 14 21.5 19.5t27.5 -0.5q14 -7 19 -21.5t-2 -27.5z" />
    <glyph glyph-name="w" unicode="w" horiz-adv-x="802" 
d="M788 538l-174 -521q-8 -26 -37 -24q-29 -2 -37 24l-139 426l-139 -426q-8 -26 -37 -24q-29 -2 -37 24l-174 521q-5 14 2 28.5t21 18.5q14 5 28.5 -2t18.5 -21l141 -435l141 435q8 24 35 24t35 -24l141 -435l141 435q4 14 18.5 21t28.5 2q14 -4 21 -18.5t2 -28.5z" />
    <glyph glyph-name="x" unicode="x" horiz-adv-x="544" 
d="M27 54l198 236l-198 236q-10 12 -8.5 27.5t13.5 24.5q11 10 26.5 8.5t25.5 -12.5l188 -229l188 229q10 11 25.5 12.5t26.5 -8.5q12 -9 13.5 -24.5t-8.5 -27.5l-198 -236l198 -236q10 -12 8.5 -27.5t-13.5 -24.5q-11 -10 -26.5 -8.5t-25.5 12.5l-188 229l-188 -229
q-10 -11 -25.5 -12.5t-26.5 8.5q-12 9 -13.5 24.5t8.5 27.5z" />
    <glyph glyph-name="y" unicode="y" horiz-adv-x="584" 
d="M569 535l-321 -692q-7 -14 -21.5 -19.5t-27.5 0.5q-14 7 -19 21.5t2 27.5l71 151l-238 511q-7 13 -2 27.5t19 21.5q13 6 27.5 0.5t21.5 -19.5l211 -461l211 461q7 14 21.5 19.5t27.5 -0.5q14 -7 19 -21.5t-2 -27.5z" />
    <glyph glyph-name="z" unicode="z" horiz-adv-x="526" 
d="M502 545q0 -12 -8 -22l-360 -455h333q14 0 24.5 -10t10.5 -24t-10.5 -24t-24.5 -10h-408q-14 0 -24.5 10t-10.5 24q0 12 8 22l360 455h-333q-14 0 -24.5 10t-10.5 24t10.5 24t24.5 10h408q14 0 24.5 -10t10.5 -24z" />
    <glyph glyph-name="braceleft" unicode="{" horiz-adv-x="332" 
d="M64 289q0 14 9.5 24t23.5 10q21 0 35.5 15t14.5 37v255q0 50 35.5 85t85.5 35h8q14 0 24 -9.5t10 -23.5t-10 -23.5t-24 -9.5h-8q-19 0 -33 -16t-14 -38v-255q0 -55 -55 -85q55 -32 55 -86v-254q0 -22 14 -38t33 -16h8q14 0 24 -9.5t10 -23.5t-10 -24t-24 -10h-8
q-50 0 -85.5 35.5t-35.5 85.5v254q0 22 -14.5 37t-35.5 15q-14 0 -23.5 9.5t-9.5 23.5z" />
    <glyph glyph-name="bar" unicode="|" horiz-adv-x="314" 
d="M120 -142v863q0 15 11 26t26 11t26 -11t11 -26v-863q0 -15 -11 -26t-26 -11t-26 11t-11 26z" />
    <glyph glyph-name="braceright" unicode="}" horiz-adv-x="332" 
d="M268 289q0 -14 -9.5 -23.5t-23.5 -9.5q-21 0 -35.5 -15t-14.5 -37v-254q0 -50 -35.5 -85.5t-85.5 -35.5h-8q-14 0 -24 10t-10 24t10 23.5t24 9.5h8q19 0 33 16t14 38v254q0 54 55 86q-55 30 -55 85v255q0 22 -14 38t-33 16h-8q-14 0 -24 9.5t-10 23.5t10 23.5t24 9.5h8
q50 0 85.5 -35t35.5 -85v-255q0 -22 14.5 -37t35.5 -15q14 0 23.5 -10t9.5 -24z" />
    <glyph glyph-name="asciitilde" unicode="~" horiz-adv-x="520" 
d="M121 355q22 11 42.5 14t38 -2.5t31 -14t28.5 -21.5q7 -6 18 -17t17.5 -17t16.5 -13t17.5 -9t17 -1.5t19.5 5.5q25 14 32 47q1 10 11 17t22 5t20 -11t7 -20q-9 -66 -60 -92q-70 -37 -138 22q-8 7 -19 17t-18 16.5t-16.5 13.5t-17.5 10t-17.5 2.5t-19.5 -5.5
q-25 -14 -32 -47q-1 -10 -11.5 -17t-21.5 -5q-12 2 -20 11t-7 20q9 66 60 92z" />
    <glyph glyph-name="uni00A0" unicode="&#xa0;" horiz-adv-x="500" 
 />
    <glyph glyph-name="exclamdown" unicode="&#xa1;" horiz-adv-x="188" 
d="M60 26l10 511q0 10 7 17t17 7t17 -7t7 -17l10 -511q0 -14 -10 -24t-24 -10t-24 10t-10 24zM38 702q0 23 16.5 39.5t39.5 16.5t39.5 -16.5t16.5 -39.5t-16.5 -39.5t-39.5 -16.5t-39.5 16.5t-16.5 39.5z" />
    <glyph glyph-name="cent" unicode="&#xa2;" 
d="M315 -57v43q-116 13 -195.5 99.5t-79.5 204.5q0 116 79.5 202.5t195.5 100.5v43q0 15 11 26t26 11t26 -11t11 -26v-42q103 -12 181 -89q9 -10 9.5 -25t-9.5 -25t-24 -10.5t-25 9.5q-75 74 -169 75q-97 0 -166.5 -70.5t-69.5 -168.5q0 -99 69.5 -169.5t166.5 -70.5
q94 0 170 76q10 9 23.5 8t23.5 -11t10.5 -25t-9.5 -24q-77 -75 -181 -89v-42q0 -15 -11 -26t-26 -11t-26 11t-11 26z" />
    <glyph glyph-name="sterling" unicode="&#xa3;" horiz-adv-x="604" 
d="M32 379q0 14 10 24t24 10h55v106q0 104 72 176q70 70 169 72t172 -66q15 -10 15 -28q0 -14 -10 -24t-24 -10q-12 0 -22 8q-55 54 -125 54t-124 -54q-49 -50 -49 -128v-106h228q14 0 24 -10t10 -24t-10 -24t-24 -10h-228v-192q0 -16 -1 -23q3 0 10.5 0.5t12.5 0.5
q64 0 114 -50q32 -32 72 -32t72 32l40 39q11 9 23 9q14 0 24 -10.5t10 -24.5q0 -11 -7.5 -20.5t-41.5 -41.5q-49 -49 -120 -49q-69 0 -120 49q-30 33 -72 33t-72 -33l-32 -31q-11 -9 -23 -9q-14 0 -24 10t-10 24q0 16 12 26l29 29q30 32 30 73v191h-55q-14 0 -24 10t-10 24z
" />
    <glyph glyph-name="currency" unicode="&#xa4;" horiz-adv-x="702" 
d="M184 505q74 58 167 58t167 -58l66 66q10 11 24 11t23 -11q10 -9 10.5 -23t-9.5 -25l-66 -66q64 -77 64 -167t-64 -167l66 -66q10 -11 9.5 -25t-10.5 -23q-9 -11 -23 -11t-24 11l-66 66q-74 -58 -167 -58t-167 58l-66 -66q-10 -11 -24 -11t-23 11q-10 9 -10.5 23t9.5 25
l66 66q-64 77 -64 167t64 167l-66 66q-10 11 -9.5 25t10.5 23q9 11 23 11t24 -11zM147 290q0 -86 59.5 -146.5t144.5 -60.5t144.5 60.5t59.5 146.5t-59.5 146.5t-144.5 60.5t-144.5 -60.5t-59.5 -146.5z" />
    <glyph glyph-name="yen" unicode="&#xa5;" horiz-adv-x="626" 
d="M537 444h-120l-50 -69h170q14 0 24 -10t10 -24t-10 -24t-24 -10h-187v-278q0 -15 -11 -26t-26 -11t-26 11t-11 26v278h-187q-14 0 -24 10t-10 24t10 24t24 10h169l-50 69h-119q-14 0 -24 10t-10 24t10 24t24 10h70l-137 188q-9 12 -6.5 27.5t14.5 24.5q13 8 28.5 5.5
t23.5 -14.5l231 -324l231 324q8 12 23.5 14.5t28.5 -5.5q12 -9 14.5 -24.5t-6.5 -27.5l-137 -188h70q14 0 24 -10t10 -24t-10 -24t-24 -10z" />
    <glyph glyph-name="brokenbar" unicode="&#xa6;" horiz-adv-x="314" 
d="M120 370v351q0 15 11 26t26 11t26 -11t11 -26v-351q0 -15 -11 -26t-26 -11t-26 11t-11 26zM120 -142v353q0 15 11 26t26 11t26 -11t11 -26v-353q0 -15 -11 -26t-26 -11t-26 11t-11 26z" />
    <glyph glyph-name="section" unicode="&#xa7;" horiz-adv-x="575" 
d="M437 661q-84 40 -153 40q-65 0 -106 -24.5t-41 -59.5q0 -43 27 -64t81 -28l113 -18q73 -10 120 -51.5t46 -118.5q-1 -93 -98 -139q88 -43 88 -134q0 -71 -65 -111.5t-158 -40.5q-101 0 -185 46q-21 10 -21 31q0 20 17.5 29.5t35.5 -0.5q84 -40 153 -40q65 0 106 24.5
t41 59.5q0 43 -27 64t-81 28l-113 18q-73 10 -120 51.5t-46 118.5q1 92 99 139q-89 41 -89 134q0 71 65 111.5t158 40.5q101 0 185 -46q21 -11 21 -31t-17.5 -29.5t-35.5 0.5zM127 340q0 -53 42.5 -81t118.5 -28q79 0 119.5 30t40.5 79q0 53 -42.5 81t-117.5 28
q-79 0 -120 -30t-41 -79z" />
    <glyph glyph-name="dieresis" unicode="&#xa8;" horiz-adv-x="320" 
d="M15 721q0 19 13.5 32.5t32.5 13.5t32.5 -13.5t13.5 -32.5t-13.5 -32.5t-32.5 -13.5t-32.5 13.5t-13.5 32.5zM213 721q0 19 13.5 32.5t32.5 13.5t32.5 -13.5t13.5 -32.5t-13.5 -32.5t-32.5 -13.5t-32.5 13.5t-13.5 32.5z" />
    <glyph glyph-name="copyright" unicode="&#xa9;" horiz-adv-x="693" 
d="M617 290q0 112 -79 191t-192 79q-112 0 -191 -79t-79 -191t79 -191.5t191 -79.5q113 0 192 79.5t79 191.5zM653 290q0 -128 -89.5 -217.5t-217.5 -89.5q-127 0 -216.5 90t-89.5 217t89.5 216.5t216.5 89.5t217 -89.5t90 -216.5zM455 182q6 6 15 6t15 -6q7 -6 7 -15.5
t-6 -14.5q-61 -58 -140 -58q-81 0 -138.5 57t-57.5 139t57.5 139t138.5 57q80 0 140 -58q6 -6 6 -15t-6 -15q-6 -7 -15.5 -6.5t-16.5 6.5q-43 43 -108 45q-63 -1 -107 -45.5t-44 -106.5q0 -64 44 -109t107 -45q64 0 109 45z" />
    <glyph glyph-name="ordfeminine" unicode="&#xaa;" horiz-adv-x="402" 
d="M315 483v44h-1q-45 -67 -121 -67q-64 0 -108.5 45t-44.5 109q0 63 44.5 108t108.5 45q77 0 121 -67h1v44q0 8 5.5 13t12.5 5q8 0 13.5 -5.5t5.5 -12.5v-261q0 -7 -5.5 -12.5t-13.5 -5.5q-7 0 -12.5 5.5t-5.5 12.5zM315 614q0 49 -35 84t-84 35t-83.5 -34.5t-34.5 -84.5
t34.5 -85t83.5 -35t84 35t35 85z" />
    <glyph glyph-name="guillemotleft" unicode="&#xab;" horiz-adv-x="431" 
d="M32 290q0 15 12.5 28.5t69.5 63.5q34 30 56 49q17 16 38 6t21 -33q0 -12 -15 -29l-99 -85l99 -86q15 -13 15 -28q0 -22 -21 -32t-38 5q-119 105 -127 114q-11 13 -11 27zM202 290q0 15 12.5 28.5t69.5 63.5q11 9 17.5 15t17.5 15.5t21 18.5q17 16 38 6t21 -33
q0 -12 -15 -29l-99 -85l99 -86q15 -13 15 -28q0 -22 -21 -32t-38 5q-119 105 -127 114q-11 13 -11 27z" />
    <glyph glyph-name="logicalnot" unicode="&#xac;" horiz-adv-x="445" 
d="M86 323h265q14 0 24 -10t10 -24v-75q0 -14 -10.5 -24t-24.5 -10t-24 10t-10 24v42h-230q-14 0 -24 9.5t-10 23.5t10 24t24 10z" />
    <glyph glyph-name="registered" unicode="&#xae;" horiz-adv-x="319" 
d="M279 648q0 -49 -35 -84.5t-84 -35.5q-50 0 -85 35t-35 85q0 49 35.5 84t84.5 35t84 -35t35 -84zM265 648q0 44 -30.5 74.5t-74.5 30.5t-75 -30.5t-31 -74.5t31 -75t75 -31t74.5 31t30.5 75zM224 678q0 -35 -33 -47l30 -59l-15 -1l-29 58h-58v-57h-14v154h69
q21 0 35.5 -14t14.5 -34zM209 678q0 14 -10 24.5t-25 10.5h-55v-71h55q15 0 25 10t10 26z" />
    <glyph glyph-name="macron" unicode="&#xaf;" horiz-adv-x="307" 
d="M52 716q0 14 10 24t24 10h135q14 0 24 -10t10 -24t-10 -24t-24 -10h-135q-14 0 -24 10t-10 24z" />
    <glyph glyph-name="degree" unicode="&#xb0;" horiz-adv-x="308" 
d="M206 665q0 21 -15 35.5t-37 14.5q-21 0 -35.5 -14.5t-14.5 -35.5q0 -22 14.5 -37t35.5 -15q22 0 37 15t15 37zM258 665q0 -42 -30.5 -72t-73.5 -30t-73.5 30t-30.5 72t30.5 72t73.5 30t73.5 -30t30.5 -72z" />
    <glyph glyph-name="plusminus" unicode="&#xb1;" horiz-adv-x="679" 
d="M42 34q0 14 10 23.5t24 9.5h527q14 0 24 -9.5t10 -23.5t-10 -24t-24 -10h-527q-14 0 -24 10t-10 24zM42 375q0 14 10 24t24 10h227v141q0 15 11 26t26 11t26 -11t11 -26v-141h226q14 0 24 -10t10 -24t-10 -23.5t-24 -9.5h-226v-140q0 -15 -11 -26t-26 -11t-26 11t-11 26
v140h-227q-14 0 -24 9.5t-10 23.5z" />
    <glyph glyph-name="twosuperior" unicode="&#xb2;" horiz-adv-x="337" 
d="M50 392q0 7 6 13l173 159q32 27 32 71q0 39 -26.5 64.5t-65.5 25.5q-38 0 -65 -27.5t-28 -67.5q0 -7 -5.5 -12t-13.5 -5q-7 0 -12 5t-5 12q0 53 37.5 90.5t91.5 37.5t92 -35t38 -88q0 -58 -48 -99l-137 -127h154q7 0 12 -5t5 -12t-5 -12t-12 -5h-201q-7 0 -12 5t-5 12z
" />
    <glyph glyph-name="threesuperior" unicode="&#xb3;" horiz-adv-x="338" 
d="M41 473q-1 10 4.5 16t12.5 6t12 -5t6 -11q6 -34 32 -56.5t60 -22.5q39 0 65.5 27.5t26.5 66.5t-26.5 66.5t-65.5 27.5q-33 0 -66 -27q-5 -5 -12 -5t-12 5t-5 12q0 10 7 15l136 128h-133q-7 0 -12 5t-5 12t5 12t12 5h175q7 0 12 -5t5 -12q0 -5 -6 -13l-105 -100
q57 1 95.5 -36t38.5 -90q0 -52 -38.5 -89.5t-91.5 -37.5q-48 0 -83.5 30.5t-43.5 75.5z" />
    <glyph glyph-name="acute" unicode="&#xb4;" horiz-adv-x="391" 
d="M87 684q-8 18 14 30l151 72q16 7 31 0t20 -23q6 -16 -1 -31.5t-23 -19.5l-162 -42q-21 -6 -30 14z" />
    <glyph glyph-name="mu" unicode="&#xb5;" 
d="M134 550l1 -336q0 -74 42.5 -119.5t113.5 -45.5q72 0 130.5 51.5t58.5 121.5v328q0 15 11 26t26 11t26 -11t11 -26v-521q0 -15 -11 -26t-26 -11t-26 11t-11 26v69h-2q-21 -45 -76 -80t-117 -35q-96 0 -150 68v-192q0 -15 -11.5 -26.5t-26.5 -11.5t-26 11.5t-11 26.5v691
q0 15 11 26t26 11t26 -11t11 -26z" />
    <glyph glyph-name="paragraph" unicode="&#xb6;" horiz-adv-x="600" 
d="M217 750h286q15 0 26 -11t11 -26v-684q0 -15 -11 -26t-26 -11t-26 11t-11 26v653h-90v-653q0 -15 -11 -26t-26 -11t-26 11t-11 26v346h-85q-80 0 -136 55t-56 133q0 77 56.5 132t135.5 55zM101 563q0 -50 33.5 -85t82.5 -35h85v239h-85q-49 0 -82.5 -34.5t-33.5 -84.5z
" />
    <glyph glyph-name="periodcentered" unicode="&#xb7;" horiz-adv-x="232" 
d="M35 290q0 23 16.5 39.5t39.5 16.5t39.5 -16.5t16.5 -39.5t-16.5 -39.5t-39.5 -16.5t-39.5 16.5t-16.5 39.5z" />
    <glyph glyph-name="cedilla" unicode="&#xb8;" horiz-adv-x="363" 
d="M117 -75l1 4q4 23 13 71h29l-9 -53q12 10 33 10q35 0 57 -22.5t22 -57.5q0 -34 -23.5 -57.5t-57.5 -23.5q-35 0 -58.5 22t-23.5 56q0 14 15 14t15 -14q0 -22 14.5 -35t37.5 -13q22 0 35.5 14.5t13.5 36.5q0 23 -13.5 38t-35.5 15q-21 0 -33 -14q-7 -10 -19 -7
q-5 1 -9.5 6t-3.5 10z" />
    <glyph glyph-name="onesuperior" unicode="&#xb9;" horiz-adv-x="229" 
d="M132 394v316l-56 -32q-3 -3 -9 -3q-7 0 -12 5t-5 12q0 11 10 16l79 47q5 3 12 3t12.5 -5t5.5 -13v-346q0 -8 -5.5 -13.5t-13.5 -5.5q-7 0 -12.5 5.5t-5.5 13.5z" />
    <glyph glyph-name="ordmasculine" unicode="&#xba;" horiz-adv-x="392" 
d="M196 494q49 0 83.5 35t34.5 85q0 49 -34.5 84t-83.5 35t-83.5 -35t-34.5 -84q0 -50 34.5 -85t83.5 -35zM196 460q-65 0 -110.5 45t-45.5 109q0 63 46 108t110 45t110 -45t46 -108q0 -64 -45.5 -109t-110.5 -45z" />
    <glyph glyph-name="guillemotright" unicode="&#xbb;" horiz-adv-x="431" 
d="M399 290q0 -15 -12.5 -28.5t-69.5 -63.5q-11 -9 -17.5 -15t-17.5 -15.5t-21 -18.5q-17 -15 -38 -5t-21 32q0 15 15 28l99 86l-99 85q-15 17 -15 29q0 23 21 33t38 -6q119 -105 127 -114q11 -13 11 -27zM229 290q0 -15 -12.5 -28.5t-69.5 -63.5q-34 -30 -56 -49
q-17 -15 -38 -5t-21 32q0 15 15 28l99 86l-99 85q-15 17 -15 29q0 23 21 33t38 -6q119 -105 127 -114q11 -13 11 -27z" />
    <glyph glyph-name="onequarter" unicode="&#xbc;" horiz-adv-x="668" 
d="M155 13l304 736q7 14 21 8q15 -6 8 -20l-304 -736q-8 -14 -20 -9q-16 6 -9 21zM132 394v316l-56 -32q-3 -3 -9 -3q-7 0 -12 5t-5 12q0 11 10 16l79 47q5 3 12 3t12.5 -5t5.5 -13v-346q0 -8 -5.5 -13.5t-13.5 -5.5q-7 0 -12.5 5.5t-5.5 13.5zM554 11v70h-172q-7 0 -12 5.5
t-5 12.5q0 6 5 11l186 257q5 8 16 8q8 0 13.5 -5.5t5.5 -12.5v-242h40q7 0 12 -5t5 -12t-5 -12t-12 -5h-40v-70q0 -7 -5.5 -13t-13.5 -6q-7 0 -12.5 5.5t-5.5 13.5zM413 115h141v194z" />
    <glyph glyph-name="onehalf" unicode="&#xbd;" horiz-adv-x="723" 
d="M155 13l304 736q7 14 21 8q15 -6 8 -20l-304 -736q-8 -14 -20 -9q-16 6 -9 21zM132 394v316l-56 -32q-3 -3 -9 -3q-7 0 -12 5t-5 12q0 11 10 16l79 47q5 3 12 3t12.5 -5t5.5 -13v-346q0 -8 -5.5 -13.5t-13.5 -5.5q-7 0 -12.5 5.5t-5.5 13.5zM434 17q0 7 6 13l173 159
q32 27 32 71q0 39 -26.5 64.5t-65.5 25.5q-38 0 -65 -27.5t-28 -67.5q0 -7 -5.5 -12t-13.5 -5q-7 0 -12 5t-5 12q0 53 37.5 90.5t91.5 37.5t92 -35t38 -88q0 -58 -48 -99l-137 -127h154q7 0 12 -5t5 -12t-5 -12t-12 -5h-201q-7 0 -12 5t-5 12z" />
    <glyph glyph-name="threequarters" unicode="&#xbe;" horiz-adv-x="749" 
d="M236 13l304 736q7 14 21 8q15 -6 8 -20l-304 -736q-8 -14 -20 -9q-16 6 -9 21zM635 11v70h-172q-7 0 -12 5.5t-5 12.5q0 6 5 11l186 257q5 8 16 8q8 0 13.5 -5.5t5.5 -12.5v-242h40q7 0 12 -5t5 -12t-5 -12t-12 -5h-40v-70q0 -7 -6 -13t-13 -6t-12.5 5.5t-5.5 13.5z
M494 115h141v194zM41 473q-1 10 4.5 16t12.5 6t12 -5t6 -11q6 -34 32 -56.5t60 -22.5q39 0 65.5 27.5t26.5 66.5t-26.5 66.5t-65.5 27.5q-33 0 -66 -27q-5 -5 -12 -5t-12 5t-5 12q0 10 7 15l136 128h-133q-7 0 -12 5t-5 12t5 12t12 5h175q7 0 12 -5t5 -12q0 -5 -6 -13
l-105 -100q57 1 95.5 -36t38.5 -90q0 -52 -38.5 -89.5t-91.5 -37.5q-48 0 -83.5 30.5t-43.5 75.5z" />
    <glyph glyph-name="questiondown" unicode="&#xbf;" horiz-adv-x="595" 
d="M335 542v-80q0 -15 -11 -26t-26 -11q-76 0 -129 -54.5t-53 -133.5q0 -77 53.5 -132t129.5 -55q68 0 120 45t63 112q2 13 12.5 22.5t24.5 9.5q16 0 27.5 -12t7.5 -31q-15 -91 -87 -152t-168 -61q-107 0 -183 74.5t-76 179.5q0 98 63 169.5t158 84.5v51q0 15 11.5 26
t26.5 11t25.5 -11t10.5 -26zM355 702q0 -23 -16.5 -39.5t-39.5 -16.5t-39.5 16.5t-16.5 39.5t16.5 39.5t39.5 16.5t39.5 -16.5t16.5 -39.5z" />
    <glyph glyph-name="Agrave" unicode="&#xc0;" horiz-adv-x="690" 
d="M23 43l286 691q10 24 36 24t36 -24l286 -691q6 -13 0 -28t-20 -20q-14 -6 -28.5 0t-20.5 20l-64 154h-378l-64 -154q-6 -14 -20.5 -20t-28.5 0q-14 5 -20 20t0 28zM345 626l-162 -390h323zM452 801q-9 -20 -30 -14l-162 42q-16 4 -23 19.5t-1 31.5q5 16 20 23t31 0
l151 -72q22 -12 14 -30z" />
    <glyph glyph-name="Aacute" unicode="&#xc1;" horiz-adv-x="690" 
d="M23 43l286 691q10 24 36 24t36 -24l286 -691q6 -13 0 -28t-20 -20q-14 -6 -28.5 0t-20.5 20l-64 154h-378l-64 -154q-6 -14 -20.5 -20t-28.5 0q-14 5 -20 20t0 28zM345 626l-162 -390h323zM235 801q-8 18 14 30l151 72q16 7 31 0t20 -23q6 -16 -1 -31.5t-23 -19.5
l-162 -42q-21 -6 -30 14z" />
    <glyph glyph-name="Acircumflex" unicode="&#xc2;" horiz-adv-x="690" 
d="M23 43l286 691q10 24 36 24t36 -24l286 -691q6 -13 0 -28t-20 -20q-14 -6 -28.5 0t-20.5 20l-64 154h-378l-64 -154q-6 -14 -20.5 -20t-28.5 0q-14 5 -20 20t0 28zM345 626l-162 -390h323zM345 927q6 0 10.5 -2t13 -10t17 -16.5l28 -28t40.5 -38.5q10 -9 6 -22t-19 -17
q-12 -3 -28 11l-68 57l-68 -57q-16 -14 -28 -11q-15 4 -19 17t6 22q21 19 40.5 38.5l28 28t17 16.5t13 10t10.5 2z" />
    <glyph glyph-name="Atilde" unicode="&#xc3;" horiz-adv-x="690" 
d="M211 808q19 58 71 58q31 0 69.5 -24t48.5 -24q21 0 29 24q2 9 11.5 13t20.5 0q9 -2 15.5 -11.5t2.5 -17.5q-19 -58 -71 -58q-31 0 -69.5 24t-48.5 24q-21 0 -29 -24q-2 -9 -11.5 -13t-20.5 0q-9 2 -15.5 11.5t-2.5 17.5zM23 43l286 691q10 24 36 24t36 -24l286 -691
q6 -13 0 -28t-20 -20q-14 -6 -28.5 0t-20.5 20l-64 154h-378l-64 -154q-6 -14 -20.5 -20t-28.5 0q-14 5 -20 20t0 28zM345 626l-162 -390h323z" />
    <glyph glyph-name="Adieresis" unicode="&#xc4;" horiz-adv-x="690" 
d="M200 838q0 19 13.5 32.5t32.5 13.5t32.5 -13.5t13.5 -32.5t-13.5 -32.5t-32.5 -13.5t-32.5 13.5t-13.5 32.5zM398 838q0 19 13.5 32.5t32.5 13.5t32.5 -13.5t13.5 -32.5t-13.5 -32.5t-32.5 -13.5t-32.5 13.5t-13.5 32.5zM23 43l286 691q10 24 36 24t36 -24l286 -691
q6 -13 0 -28t-20 -20q-14 -6 -28.5 0t-20.5 20l-64 154h-378l-64 -154q-6 -14 -20.5 -20t-28.5 0q-14 5 -20 20t0 28zM345 626l-162 -390h323z" />
    <glyph glyph-name="Aring" unicode="&#xc5;" horiz-adv-x="690" 
d="M23 43l281 679q-30 11 -49 38t-19 60q0 43 32.5 73.5t76.5 30.5t76.5 -30.5t32.5 -73.5q0 -33 -19.5 -59.5t-48.5 -38.5l281 -679q6 -13 0 -28t-20 -20q-14 -6 -28.5 0t-20.5 20l-64 154h-378l-64 -154q-6 -14 -20.5 -20t-28.5 0q-14 5 -20 20t0 28zM345 626l-162 -390
h323zM410 821q0 27 -19 44t-46 17t-46 -17t-19 -44t19 -46t46 -19t46 19t19 46z" />
    <glyph glyph-name="AE" unicode="&#xc6;" horiz-adv-x="1112" 
d="M22 46l511 689q11 15 32 15h478q14 0 24 -10t10 -24t-10 -24t-24 -10h-444v-274h375q14 0 24 -10t10 -24t-10 -24t-24 -10h-369v-272h438q14 -1 24 -11t10 -23q0 -14 -10 -24t-24 -10h-475q-15 0 -26 11t-11 26v134h-327l-120 -165q-8 -12 -24 -14t-27 7
q-12 9 -15.5 21.5t4.5 25.5zM531 614l-277 -376h277v376z" />
    <glyph glyph-name="Ccedilla" unicode="&#xc7;" horiz-adv-x="751" 
d="M365 -75l1 6q4 22 10 56q-145 18 -243.5 128.5t-98.5 258.5q0 163 116.5 278.5t279.5 114.5q160 1 278 -117q10 -10 10.5 -24t-9.5 -24q-11 -10 -24.5 -10t-23.5 10q-101 98 -230 98q-135 0 -228.5 -95.5t-92.5 -230.5q-1 -135 92.5 -229.5t228.5 -94.5q131 0 230 94
q10 9 24 9t24 -10t9.5 -23.5t-10.5 -23.5q-118 -114 -278 -113q-5 0 -13 0.5t-12 0.5l-6 -37q12 10 33 10q35 0 57 -22.5t22 -57.5q0 -34 -23.5 -57.5t-57.5 -23.5q-35 0 -58.5 22t-23.5 56q0 14 15 14t15 -14q0 -22 14.5 -35t37.5 -13q22 0 35.5 14.5t13.5 36.5
q0 23 -13.5 38t-35.5 15q-21 0 -33 -14q-7 -10 -19 -7q-5 1 -9.5 6t-3.5 10z" />
    <glyph glyph-name="Egrave" unicode="&#xc8;" horiz-adv-x="641" 
d="M60 37v676q0 15 11 26t26 11h475q14 0 24 -10t10 -24t-10 -24t-24 -10h-438v-274h369q14 0 24 -10t10 -24t-10 -24t-24 -10h-369v-272h438q14 -1 24 -11t10 -23q0 -14 -10 -24t-24 -10h-475q-15 0 -26 11t-11 26zM442 801q-9 -20 -30 -14l-162 42q-16 4 -23 19.5t-1 31.5
q5 16 20 23t31 0l151 -72q22 -12 14 -30z" />
    <glyph glyph-name="Eacute" unicode="&#xc9;" horiz-adv-x="641" 
d="M60 37v676q0 15 11 26t26 11h475q14 0 24 -10t10 -24t-10 -24t-24 -10h-438v-274h369q14 0 24 -10t10 -24t-10 -24t-24 -10h-369v-272h438q14 -1 24 -11t10 -23q0 -14 -10 -24t-24 -10h-475q-15 0 -26 11t-11 26zM229 801q-8 18 14 30l151 72q16 7 31 0t20 -23
q6 -16 -1 -31.5t-23 -19.5l-162 -42q-21 -6 -30 14z" />
    <glyph glyph-name="Ecircumflex" unicode="&#xca;" horiz-adv-x="641" 
d="M60 37v676q0 15 11 26t26 11h475q14 0 24 -10t10 -24t-10 -24t-24 -10h-438v-274h369q14 0 24 -10t10 -24t-10 -24t-24 -10h-369v-272h438q14 -1 24 -11t10 -23q0 -14 -10 -24t-24 -10h-475q-15 0 -26 11t-11 26zM333 927q6 0 10.5 -2t13 -10t17 -16.5l28 -28t40.5 -38.5
q10 -9 6 -22t-19 -17q-12 -3 -28 11l-68 57l-68 -57q-16 -14 -28 -11q-15 4 -19 17t6 22q21 19 40.5 38.5l28 28t17 16.5t13 10t10.5 2z" />
    <glyph glyph-name="Edieresis" unicode="&#xcb;" horiz-adv-x="641" 
d="M60 37v676q0 15 11 26t26 11h475q14 0 24 -10t10 -24t-10 -24t-24 -10h-438v-274h369q14 0 24 -10t10 -24t-10 -24t-24 -10h-369v-272h438q14 -1 24 -11t10 -23q0 -14 -10 -24t-24 -10h-475q-15 0 -26 11t-11 26zM176 838q0 19 13.5 32.5t32.5 13.5t32.5 -13.5
t13.5 -32.5t-13.5 -32.5t-32.5 -13.5t-32.5 13.5t-13.5 32.5zM374 838q0 19 13.5 32.5t32.5 13.5t32.5 -13.5t13.5 -32.5t-13.5 -32.5t-32.5 -13.5t-32.5 13.5t-13.5 32.5z" />
    <glyph glyph-name="Igrave" unicode="&#xcc;" horiz-adv-x="194" 
d="M60 29v692q0 15 11 26t26 11t26 -11t11 -26v-692q0 -15 -11 -26t-26 -11t-26 11t-11 26zM206 801q-9 -20 -30 -14l-162 42q-16 4 -23 19.5t-1 31.5q5 16 20 23t31 0l151 -72q22 -12 14 -30z" />
    <glyph glyph-name="Iacute" unicode="&#xcd;" horiz-adv-x="194" 
d="M60 29v692q0 15 11 26t26 11t26 -11t11 -26v-692q0 -15 -11 -26t-26 -11t-26 11t-11 26zM-11 801q-8 18 14 30l151 72q16 7 31 0t20 -23q6 -16 -1 -31.5t-23 -19.5l-162 -42q-21 -6 -30 14z" />
    <glyph glyph-name="Icircumflex" unicode="&#xce;" horiz-adv-x="194" 
d="M60 29v692q0 15 11 26t26 11t26 -11t11 -26v-692q0 -15 -11 -26t-26 -11t-26 11t-11 26zM97 927q6 0 10.5 -2t13 -10t17 -16.5l28 -28t40.5 -38.5q10 -9 6 -22t-19 -17q-12 -3 -28 11l-68 57l-68 -57q-16 -14 -28 -11q-15 4 -19 17t6 22q21 19 40.5 38.5l28 28t17 16.5
t13 10t10.5 2z" />
    <glyph glyph-name="Idieresis" unicode="&#xcf;" horiz-adv-x="194" 
d="M60 29v692q0 15 11 26t26 11t26 -11t11 -26v-692q0 -15 -11 -26t-26 -11t-26 11t-11 26zM-46 838q0 19 13.5 32.5t32.5 13.5t32.5 -13.5t13.5 -32.5t-13.5 -32.5t-32.5 -13.5t-32.5 13.5t-13.5 32.5zM148 838q0 19 13.5 32.5t32.5 13.5t32.5 -13.5t13.5 -32.5
t-13.5 -32.5t-32.5 -13.5t-32.5 13.5t-13.5 32.5z" />
    <glyph glyph-name="Eth" unicode="&#xd0;" horiz-adv-x="745" 
d="M12 375q0 14 10 24t24 10h33v307q0 14 10 24t24 10h222q155 0 265 -110t110 -265t-110 -265t-265 -110h-222q-14 0 -24 10t-10 24v307h-33q-14 0 -24 10t-10 24zM640 375q0 128 -89 217.5t-216 89.5h-188v-273h138q14 0 23.5 -10t9.5 -24t-9.5 -24t-23.5 -10h-138v-273
h188q127 0 216 90t89 217z" />
    <glyph glyph-name="Ntilde" unicode="&#xd1;" horiz-adv-x="702" 
d="M216 808q19 58 71 58q31 0 69.5 -24t48.5 -24q21 0 29 24q2 9 11.5 13t20.5 0q9 -2 15.5 -11.5t2.5 -17.5q-19 -58 -71 -58q-31 0 -69.5 24t-48.5 24q-21 0 -29 -24q-2 -9 -11.5 -13t-20.5 0q-9 2 -15.5 11.5t-2.5 17.5zM605 758q16 0 26.5 -10.5t10.5 -26.5v-692
q0 -16 -11 -26.5t-27 -10.5q-20 0 -31 16l-439 602v-581q0 -16 -10.5 -26.5t-26.5 -10.5t-26.5 10.5t-10.5 26.5v692q0 16 11 26.5t26 10.5q21 0 30 -14l441 -604v581q0 16 10.5 26.5t26.5 10.5z" />
    <glyph glyph-name="Ograve" unicode="&#xd2;" horiz-adv-x="862" 
d="M751 375q0 135 -93.5 230t-226.5 95t-226.5 -95t-93.5 -230t93.5 -230t226.5 -95t226.5 95t93.5 230zM827 375q0 -162 -116 -277t-280 -115t-280 115t-116 277t116 277t280 115t280 -115t116 -277zM541 801q-9 -20 -30 -14l-162 42q-16 4 -23 19.5t-1 31.5q5 16 20 23
t31 0l151 -72q22 -12 14 -30z" />
    <glyph glyph-name="Oacute" unicode="&#xd3;" horiz-adv-x="862" 
d="M751 375q0 135 -93.5 230t-226.5 95t-226.5 -95t-93.5 -230t93.5 -230t226.5 -95t226.5 95t93.5 230zM827 375q0 -162 -116 -277t-280 -115t-280 115t-116 277t116 277t280 115t280 -115t116 -277zM320 801q-8 18 14 30l151 72q16 7 31 0t20 -23q6 -16 -1 -31.5
t-23 -19.5l-162 -42q-21 -6 -30 14z" />
    <glyph glyph-name="Ocircumflex" unicode="&#xd4;" horiz-adv-x="862" 
d="M751 375q0 135 -93.5 230t-226.5 95t-226.5 -95t-93.5 -230t93.5 -230t226.5 -95t226.5 95t93.5 230zM827 375q0 -162 -116 -277t-280 -115t-280 115t-116 277t116 277t280 115t280 -115t116 -277zM431 927q6 0 10.5 -2t13 -10t17 -16.5l28 -28t40.5 -38.5q10 -9 6 -22
t-19 -17q-12 -3 -28 11l-68 57l-68 -57q-16 -14 -28 -11q-15 4 -19 17t6 22q21 19 40.5 38.5l28 28t17 16.5t13 10t10.5 2z" />
    <glyph glyph-name="Otilde" unicode="&#xd5;" horiz-adv-x="862" 
d="M297 828q19 58 71 58q31 0 69.5 -24t48.5 -24q21 0 29 24q2 9 11.5 13t20.5 0q9 -2 15.5 -11.5t2.5 -17.5q-19 -58 -71 -58q-31 0 -69.5 24t-48.5 24q-21 0 -29 -24q-2 -9 -11.5 -13t-20.5 0q-9 2 -15.5 11.5t-2.5 17.5zM751 375q0 135 -93.5 230t-226.5 95t-226.5 -95
t-93.5 -230t93.5 -230t226.5 -95t226.5 95t93.5 230zM827 375q0 -162 -116 -277t-280 -115t-280 115t-116 277t116 277t280 115t280 -115t116 -277z" />
    <glyph glyph-name="Odieresis" unicode="&#xd6;" horiz-adv-x="862" 
d="M286 838q0 19 13.5 32.5t32.5 13.5t32.5 -13.5t13.5 -32.5t-13.5 -32.5t-32.5 -13.5t-32.5 13.5t-13.5 32.5zM484 838q0 19 13.5 32.5t32.5 13.5t32.5 -13.5t13.5 -32.5t-13.5 -32.5t-32.5 -13.5t-32.5 13.5t-13.5 32.5zM751 375q0 135 -93.5 230t-226.5 95t-226.5 -95
t-93.5 -230t93.5 -230t226.5 -95t226.5 95t93.5 230zM827 375q0 -162 -116 -277t-280 -115t-280 115t-116 277t116 277t280 115t280 -115t116 -277z" />
    <glyph glyph-name="multiply" unicode="&#xd7;" horiz-adv-x="662" 
d="M619 527l-239 -239l239 -239q11 -10 11 -24t-11 -24q-10 -10 -24 -10.5t-25 9.5l-239 239l-240 -239q-10 -10 -24 -10t-25 11q-10 10 -10 23.5t10 24.5l240 239l-239 240q-10 10 -10 24t11 25q10 10 24 10t24 -10l239 -240l239 239q10 10 24 10t24 -10t10.5 -24t-9.5 -25
z" />
    <glyph glyph-name="Oslash" unicode="&#xd8;" horiz-adv-x="872" 
d="M832 375q0 -162 -116 -277t-280 -115q-144 0 -253 90l-72 -72q-11 -10 -25 -9.5t-24 10.5t-10 24t10 24l71 71q-93 111 -93 254q0 162 116 277t280 115q141 0 252 -90l72 72q10 10 24 10t24 -10q11 -11 11 -25t-10 -24l-72 -72q95 -109 95 -253zM756 375q0 115 -70 202
l-453 -454q87 -73 203 -73q133 0 226.5 95t93.5 230zM116 375q0 -112 69 -202l453 454q-89 73 -202 73q-133 0 -226.5 -95t-93.5 -230z" />
    <glyph glyph-name="Ugrave" unicode="&#xd9;" horiz-adv-x="699" 
d="M565 273v448q0 15 11 26t26 11t26 -11t11 -26v-448q0 -120 -85 -205t-204 -85q-120 0 -205 85t-85 205v448q0 15 11 26t26 11t26 -11t11 -26v-448q0 -93 62 -158t154 -65q91 0 153 65t62 158zM450 801q-9 -20 -30 -14l-162 42q-16 4 -23 19.5t-1 31.5q5 16 20 23t31 0
l151 -72q22 -12 14 -30z" />
    <glyph glyph-name="Uacute" unicode="&#xda;" horiz-adv-x="699" 
d="M565 273v448q0 15 11 26t26 11t26 -11t11 -26v-448q0 -120 -85 -205t-204 -85q-120 0 -205 85t-85 205v448q0 15 11 26t26 11t26 -11t11 -26v-448q0 -93 62 -158t154 -65q91 0 153 65t62 158zM236 801q-8 18 14 30l151 72q16 7 31 0t20 -23q6 -16 -1 -31.5t-23 -19.5
l-162 -42q-21 -6 -30 14z" />
    <glyph glyph-name="Ucircumflex" unicode="&#xdb;" horiz-adv-x="699" 
d="M350 927q6 0 10.5 -2t13 -10t17 -16.5l28 -28t40.5 -38.5q10 -9 6 -22t-19 -17q-12 -3 -28 11l-68 57l-68 -57q-16 -14 -28 -11q-15 4 -19 17t6 22q21 19 40.5 38.5l28 28t17 16.5t13 10t10.5 2zM565 273v448q0 15 11 26t26 11t26 -11t11 -26v-448q0 -120 -85 -205
t-204 -85q-120 0 -205 85t-85 205v448q0 15 11 26t26 11t26 -11t11 -26v-448q0 -93 62 -158t154 -65q91 0 153 65t62 158z" />
    <glyph glyph-name="Udieresis" unicode="&#xdc;" horiz-adv-x="699" 
d="M204 838q0 19 13.5 32.5t32.5 13.5t32.5 -13.5t13.5 -32.5t-13.5 -32.5t-32.5 -13.5t-32.5 13.5t-13.5 32.5zM402 838q0 19 13.5 32.5t32.5 13.5t32.5 -13.5t13.5 -32.5t-13.5 -32.5t-32.5 -13.5t-32.5 13.5t-13.5 32.5zM565 273v448q0 15 11 26t26 11t26 -11t11 -26
v-448q0 -120 -85 -205t-204 -85q-120 0 -205 85t-85 205v448q0 15 11 26t26 11t26 -11t11 -26v-448q0 -93 62 -158t154 -65q91 0 153 65t62 158z" />
    <glyph glyph-name="Yacute" unicode="&#xdd;" horiz-adv-x="626" 
d="M313 -8q-15 0 -26 11t-11 26v322l-254 349q-9 12 -6.5 27.5t14.5 24.5q13 8 28.5 5.5t23.5 -14.5l231 -324l231 324q8 12 23.5 14.5t28.5 -5.5q12 -9 14.5 -24.5t-6.5 -27.5l-254 -349v-322q0 -15 -11 -26t-26 -11zM201 801q-8 18 14 30l151 72q16 7 31 0t20 -23
q6 -16 -1 -31.5t-23 -19.5l-162 -42q-21 -6 -30 14z" />
    <glyph glyph-name="Thorn" unicode="&#xde;" horiz-adv-x="650" 
d="M60 29v692q0 15 11 26t26 11t26 -11t11 -26v-65h279q83 0 142 -58.5t59 -140.5q0 -83 -59 -142t-142 -59h-279v-227q0 -15 -11 -26t-26 -11t-26 11t-11 26zM538 457q0 54 -36 92.5t-89 38.5h-279v-264h279q53 0 89 39t36 94z" />
    <glyph glyph-name="germandbls" unicode="&#xdf;" horiz-adv-x="564" 
d="M184 34q0 14 10 24.5t24 10.5h79q63 0 107 44.5t44 107.5q0 64 -44 109t-107 45h-79q-14 0 -24 10.5t-10 24.5t10 24t24 10h44q53 0 90 36.5t37 89.5t-37 90.5t-90 37.5q-52 0 -90 -37.5t-38 -90.5v-712q0 -15 -11 -26t-26 -11t-26 11t-11 26v713q0 81 59.5 138.5
t142.5 57.5q84 0 143.5 -58t59.5 -139q0 -86 -74 -148q59 -27 96 -81.5t37 -119.5q0 -91 -66.5 -156t-160.5 -65h-79q-14 0 -24 10t-10 24z" />
    <glyph glyph-name="agrave" unicode="&#xe0;" horiz-adv-x="724" 
d="M590 29v88h-2q-89 -134 -242 -134q-128 0 -217 89.5t-89 217.5q0 127 89 216.5t217 89.5q154 0 242 -134h2v88q0 15 11 26t26 11t26 -11t11 -26v-521q0 -15 -11 -26t-26 -11t-26 11t-11 26zM590 290q0 99 -70 169t-168 70q-99 0 -167.5 -70t-68.5 -169q0 -100 68.5 -170
t167.5 -70q98 0 168 70t70 170zM466 684q-9 -20 -30 -14l-162 42q-16 4 -23 19.5t-1 31.5q5 16 20 23t31 0l151 -72q22 -12 14 -30z" />
    <glyph glyph-name="aacute" unicode="&#xe1;" horiz-adv-x="724" 
d="M590 29v88h-2q-89 -134 -242 -134q-128 0 -217 89.5t-89 217.5q0 127 89 216.5t217 89.5q154 0 242 -134h2v88q0 15 11 26t26 11t26 -11t11 -26v-521q0 -15 -11 -26t-26 -11t-26 11t-11 26zM590 290q0 99 -70 169t-168 70q-99 0 -167.5 -70t-68.5 -169q0 -100 68.5 -170
t167.5 -70q98 0 168 70t70 170zM247 684q-8 18 14 30l151 72q16 7 31 0t20 -23q6 -16 -1 -31.5t-23 -19.5l-162 -42q-21 -6 -30 14z" />
    <glyph glyph-name="acircumflex" unicode="&#xe2;" horiz-adv-x="724" 
d="M590 29v88h-2q-89 -134 -242 -134q-128 0 -217 89.5t-89 217.5q0 127 89 216.5t217 89.5q154 0 242 -134h2v88q0 15 11 26t26 11t26 -11t11 -26v-521q0 -15 -11 -26t-26 -11t-26 11t-11 26zM590 290q0 99 -70 169t-168 70q-99 0 -167.5 -70t-68.5 -169q0 -100 68.5 -170
t167.5 -70q98 0 168 70t70 170zM352 797q6 0 10.5 -2t13 -10t17 -16.5l28 -28t40.5 -38.5q10 -9 6 -22t-19 -17q-12 -3 -28 11l-68 57l-68 -57q-16 -14 -28 -11q-15 4 -19 17t6 22q21 19 40.5 38.5l28 28t17 16.5t13 10t10.5 2z" />
    <glyph glyph-name="atilde" unicode="&#xe3;" horiz-adv-x="724" 
d="M590 29v88h-2q-89 -134 -242 -134q-128 0 -217 89.5t-89 217.5q0 127 89 216.5t217 89.5q154 0 242 -134h2v88q0 15 11 26t26 11t26 -11t11 -26v-521q0 -15 -11 -26t-26 -11t-26 11t-11 26zM590 290q0 99 -70 169t-168 70q-99 0 -167.5 -70t-68.5 -169q0 -100 68.5 -170
t167.5 -70q98 0 168 70t70 170zM218 702q19 58 71 58q31 0 69.5 -24t48.5 -24q21 0 29 24q2 9 11.5 13t20.5 0q9 -2 15.5 -11.5t2.5 -17.5q-19 -58 -71 -58q-31 0 -69.5 24t-48.5 24q-21 0 -29 -24q-2 -9 -11.5 -13t-20.5 0q-9 2 -15.5 11.5t-2.5 17.5z" />
    <glyph glyph-name="adieresis" unicode="&#xe4;" horiz-adv-x="724" 
d="M590 29v88h-2q-89 -134 -242 -134q-128 0 -217 89.5t-89 217.5q0 127 89 216.5t217 89.5q154 0 242 -134h2v88q0 15 11 26t26 11t26 -11t11 -26v-521q0 -15 -11 -26t-26 -11t-26 11t-11 26zM590 290q0 99 -70 169t-168 70q-99 0 -167.5 -70t-68.5 -169q0 -100 68.5 -170
t167.5 -70q98 0 168 70t70 170zM207 721q0 19 13.5 32.5t32.5 13.5t32.5 -13.5t13.5 -32.5t-13.5 -32.5t-32.5 -13.5t-32.5 13.5t-13.5 32.5zM405 721q0 19 13.5 32.5t32.5 13.5t32.5 -13.5t13.5 -32.5t-13.5 -32.5t-32.5 -13.5t-32.5 13.5t-13.5 32.5z" />
    <glyph glyph-name="aring" unicode="&#xe5;" horiz-adv-x="724" 
d="M417 721q0 27 -19 44t-46 17t-46 -17t-19 -44t19 -46t46 -19t46 19t19 46zM461 720q0 -44 -32.5 -75t-76.5 -31t-76.5 31t-32.5 75q0 43 32.5 73.5t76.5 30.5t76.5 -30.5t32.5 -73.5zM590 29v88h-2q-89 -134 -242 -134q-128 0 -217 89.5t-89 217.5q0 127 89 216.5
t217 89.5q154 0 242 -134h2v88q0 15 11 26t26 11t26 -11t11 -26v-521q0 -15 -11 -26t-26 -11t-26 11t-11 26zM590 290q0 99 -70 169t-168 70q-99 0 -167.5 -70t-68.5 -169q0 -100 68.5 -170t167.5 -70q98 0 168 70t70 170z" />
    <glyph glyph-name="ae" unicode="&#xe6;" horiz-adv-x="1253" 
d="M590 29v88h-2q-89 -134 -242 -134q-128 0 -217 89.5t-89 217.5q0 127 89 216.5t217 89.5q154 0 242 -134h2v88q0 15 11 26t26 11t26 -11t11 -26v-78h2q35 54 100 89t137 35q127 0 217.5 -89t92.5 -217q0 -14 -10.5 -24t-24.5 -10h-509q13 -88 79 -147t155 -59
q59 0 108.5 27t81.5 74q10 17 32 17q21 0 31 -19t-1 -35q-36 -55 -105 -93t-147 -38q-154 0 -237 124h-2v-78q0 -15 -11 -26t-26 -11t-26 11t-11 26zM590 290q0 99 -70 169t-168 70q-99 0 -167.5 -70t-68.5 -169q0 -100 68.5 -170t167.5 -70q98 0 168 70t70 170zM669 324
h469q-13 87 -79.5 146.5t-155.5 59.5t-155 -59.5t-79 -146.5z" />
    <glyph glyph-name="ccedilla" unicode="&#xe7;" 
d="M521 454q-75 74 -169 75q-97 0 -166.5 -70.5t-69.5 -168.5q0 -99 69.5 -169.5t166.5 -70.5q94 0 170 76q10 9 23.5 8t23.5 -11t10.5 -25t-9.5 -24q-94 -91 -218 -91q-4 0 -12.5 0.5t-12.5 0.5l-6 -37q12 10 33 10q35 0 57 -22.5t22 -57.5q0 -34 -23.5 -57.5t-57.5 -23.5
q-35 0 -58.5 22t-23.5 56q0 14 15 14t15 -14q0 -22 14.5 -35t37.5 -13q22 0 35.5 14.5t13.5 36.5q0 23 -13.5 38t-35.5 15q-21 0 -33 -14q-7 -10 -19 -7q-5 1 -9.5 6t-3.5 10l2 8q4 24 10 55q-111 18 -185 103.5t-74 198.5q0 127 92 216.5t220 89.5q125 0 218 -91
q9 -10 9.5 -25t-9.5 -25t-24 -10.5t-25 9.5z" />
    <glyph glyph-name="egrave" unicode="&#xe8;" horiz-adv-x="699" 
d="M659 290q0 -14 -10.5 -24t-24.5 -10h-509q13 -88 79 -147t155 -59q59 0 109.5 27t82.5 74q10 17 29 17q21 0 30.5 -19t-1.5 -35q-37 -56 -104 -93.5t-146 -37.5q-128 0 -218.5 90t-90.5 217t90.5 216.5t218.5 89.5q127 0 217.5 -89t92.5 -217zM115 324h469
q-13 87 -79.5 146t-155.5 59t-155 -59t-79 -146zM463 684q-9 -20 -30 -14l-162 42q-16 4 -23 19.5t-1 31.5q5 16 20 23t31 0l151 -72q22 -12 14 -30z" />
    <glyph glyph-name="eacute" unicode="&#xe9;" horiz-adv-x="699" 
d="M659 290q0 -14 -10.5 -24t-24.5 -10h-509q13 -88 79 -147t155 -59q59 0 109.5 27t82.5 74q10 17 29 17q21 0 30.5 -19t-1.5 -35q-37 -56 -104 -93.5t-146 -37.5q-128 0 -218.5 90t-90.5 217t90.5 216.5t218.5 89.5q127 0 217.5 -89t92.5 -217zM115 324h469
q-13 87 -79.5 146t-155.5 59t-155 -59t-79 -146zM242 684q-8 18 14 30l151 72q16 7 31 0t20 -23q6 -16 -1 -31.5t-23 -19.5l-162 -42q-21 -6 -30 14z" />
    <glyph glyph-name="ecircumflex" unicode="&#xea;" horiz-adv-x="699" 
d="M659 290q0 -14 -10.5 -24t-24.5 -10h-509q13 -88 79 -147t155 -59q59 0 109.5 27t82.5 74q10 17 29 17q21 0 30.5 -19t-1.5 -35q-37 -56 -104 -93.5t-146 -37.5q-128 0 -218.5 90t-90.5 217t90.5 216.5t218.5 89.5q127 0 217.5 -89t92.5 -217zM115 324h469
q-13 87 -79.5 146t-155.5 59t-155 -59t-79 -146zM349 797q6 0 10.5 -2t13 -10t17 -16.5l28 -28t40.5 -38.5q10 -9 6 -22t-19 -17q-12 -3 -28 11l-68 57l-68 -57q-16 -14 -28 -11q-15 4 -19 17t6 22q21 19 40.5 38.5l28 28t17 16.5t13 10t10.5 2z" />
    <glyph glyph-name="edieresis" unicode="&#xeb;" horiz-adv-x="699" 
d="M659 290q0 -14 -10.5 -24t-24.5 -10h-509q13 -88 79 -147t155 -59q59 0 109.5 27t82.5 74q10 17 29 17q21 0 30.5 -19t-1.5 -35q-37 -56 -104 -93.5t-146 -37.5q-128 0 -218.5 90t-90.5 217t90.5 216.5t218.5 89.5q127 0 217.5 -89t92.5 -217zM115 324h469
q-13 87 -79.5 146t-155.5 59t-155 -59t-79 -146zM204 721q0 19 13.5 32.5t32.5 13.5t32.5 -13.5t13.5 -32.5t-13.5 -32.5t-32.5 -13.5t-32.5 13.5t-13.5 32.5zM402 721q0 19 13.5 32.5t32.5 13.5t32.5 -13.5t13.5 -32.5t-13.5 -32.5t-32.5 -13.5t-32.5 13.5t-13.5 32.5z" />
    <glyph glyph-name="igrave" unicode="&#xec;" horiz-adv-x="194" 
d="M60 29v521q0 15 11 26t26 11t26 -11t11 -26v-521q0 -15 -11 -26t-26 -11t-26 11t-11 26zM206 684q-9 -20 -30 -14l-162 42q-16 4 -23 19.5t-1 31.5q5 16 20 23t31 0l151 -72q22 -12 14 -30z" />
    <glyph glyph-name="iacute" unicode="&#xed;" horiz-adv-x="194" 
d="M60 29v521q0 15 11 26t26 11t26 -11t11 -26v-521q0 -15 -11 -26t-26 -11t-26 11t-11 26zM-12 684q-8 18 14 30l151 72q16 7 31 0t20 -23q6 -16 -1 -31.5t-23 -19.5l-162 -42q-21 -6 -30 14z" />
    <glyph glyph-name="icircumflex" unicode="&#xee;" horiz-adv-x="194" 
d="M60 29v521q0 15 11 26t26 11t26 -11t11 -26v-521q0 -15 -11 -26t-26 -11t-26 11t-11 26zM97 797q6 0 10.5 -2t13 -10t17 -16.5l28 -28t40.5 -38.5q10 -9 6 -22t-19 -17q-12 -3 -28 11l-68 57l-68 -57q-16 -14 -28 -11q-15 4 -19 17t6 22q21 19 40.5 38.5l28 28t17 16.5
t13 10t10.5 2z" />
    <glyph glyph-name="idieresis" unicode="&#xef;" horiz-adv-x="194" 
d="M60 29v521q0 15 11 26t26 11t26 -11t11 -26v-521q0 -15 -11 -26t-26 -11t-26 11t-11 26zM-28 721q0 19 13.5 32.5t32.5 13.5t32.5 -13.5t13.5 -32.5t-13.5 -32.5t-32.5 -13.5t-32.5 13.5t-13.5 32.5zM130 721q0 19 13.5 32.5t32.5 13.5t32.5 -13.5t13.5 -32.5
t-13.5 -32.5t-32.5 -13.5t-32.5 13.5t-13.5 32.5z" />
    <glyph glyph-name="eth" unicode="&#xf0;" horiz-adv-x="688" 
d="M259 700q-12 10 -12 25q1 14 10.5 23.5t22.5 9.5q14 0 26 -12l39 -38l53 45q7 6 18 4.5t18 -9.5q7 -7 6 -17.5t-9 -17.5l-48 -41l170 -158q54 -56 74.5 -109.5t20.5 -123.5q0 -124 -89 -211t-215 -87t-215 87t-89 211q0 114 89 196t186 82q89 0 130 -32l2 3l-112 101
l-52 -44q-21 -17 -36 3q-16 18 2 36l47 40zM572 281q0 89 -68.5 152t-159.5 63q-88 0 -158 -62t-70 -153q0 -96 67 -164t161 -68q95 0 161 68t67 164z" />
    <glyph glyph-name="ntilde" unicode="&#xf1;" 
d="M97 -8q-15 0 -26 11t-11 26v521q0 15 11 26t26 11t26 -11t11 -26v-69h2q21 45 76 80t117 35q104 0 164.5 -63.5t60.5 -167.5v-336q0 -15 -11 -26t-26 -11t-26 11t-11 26v336q0 74 -43 119.5t-114 45.5q-72 0 -130.5 -51.5t-58.5 -121.5v-328q0 -15 -11 -26t-26 -11z
M178 702q19 58 71 58q31 0 69.5 -24t48.5 -24q21 0 29 24q2 9 11.5 13t20.5 0q9 -2 15.5 -11.5t2.5 -17.5q-19 -58 -71 -58q-31 0 -69.5 24t-48.5 24q-21 0 -29 -24q-2 -9 -11.5 -13t-20.5 0q-9 2 -15.5 11.5t-2.5 17.5z" />
    <glyph glyph-name="ograve" unicode="&#xf2;" horiz-adv-x="704" 
d="M352 50q99 0 167.5 70.5t68.5 169.5t-68.5 169t-167.5 70q-97 0 -166.5 -70.5t-69.5 -168.5q0 -99 69.5 -169.5t166.5 -70.5zM352 -17q-129 0 -220.5 90t-91.5 217t92 216.5t220 89.5q129 0 220.5 -89.5t91.5 -216.5t-91.5 -217t-220.5 -90zM464 684q-9 -20 -30 -14
l-162 42q-16 4 -23 19.5t-1 31.5q5 16 20 23t31 0l151 -72q22 -12 14 -30z" />
    <glyph glyph-name="oacute" unicode="&#xf3;" horiz-adv-x="704" 
d="M352 50q99 0 167.5 70.5t68.5 169.5t-68.5 169t-167.5 70q-97 0 -166.5 -70.5t-69.5 -168.5q0 -99 69.5 -169.5t166.5 -70.5zM352 -17q-129 0 -220.5 90t-91.5 217t92 216.5t220 89.5q129 0 220.5 -89.5t91.5 -216.5t-91.5 -217t-220.5 -90zM242 684q-8 18 14 30l151 72
q16 7 31 0t20 -23q6 -16 -1 -31.5t-23 -19.5l-162 -42q-21 -6 -30 14z" />
    <glyph glyph-name="ocircumflex" unicode="&#xf4;" horiz-adv-x="704" 
d="M352 50q99 0 167.5 70.5t68.5 169.5t-68.5 169t-167.5 70q-97 0 -166.5 -70.5t-69.5 -168.5q0 -99 69.5 -169.5t166.5 -70.5zM352 -17q-129 0 -220.5 90t-91.5 217t92 216.5t220 89.5q129 0 220.5 -89.5t91.5 -216.5t-91.5 -217t-220.5 -90zM352 797q6 0 10.5 -2t13 -10
t17 -16.5l28 -28t40.5 -38.5q10 -9 6 -22t-19 -17q-12 -3 -28 11l-68 57l-68 -57q-16 -14 -28 -11q-15 4 -19 17t6 22q21 19 40.5 38.5l28 28t17 16.5t13 10t10.5 2z" />
    <glyph glyph-name="otilde" unicode="&#xf5;" horiz-adv-x="704" 
d="M218 702q19 58 71 58q31 0 69.5 -24t48.5 -24q21 0 29 24q2 9 11.5 13t20.5 0q9 -2 15.5 -11.5t2.5 -17.5q-19 -58 -71 -58q-31 0 -69.5 24t-48.5 24q-21 0 -29 -24q-2 -9 -11.5 -13t-20.5 0q-9 2 -15.5 11.5t-2.5 17.5zM352 -17q-129 0 -220.5 90t-91.5 217t92 216.5
t220 89.5q129 0 220.5 -89.5t91.5 -216.5t-91.5 -217t-220.5 -90zM352 50q99 0 167.5 70.5t68.5 169.5t-68.5 169t-167.5 70q-97 0 -166.5 -70.5t-69.5 -168.5q0 -99 69.5 -169.5t166.5 -70.5z" />
    <glyph glyph-name="odieresis" unicode="&#xf6;" horiz-adv-x="704" 
d="M207 721q0 19 13.5 32.5t32.5 13.5t32.5 -13.5t13.5 -32.5t-13.5 -32.5t-32.5 -13.5t-32.5 13.5t-13.5 32.5zM405 721q0 19 13.5 32.5t32.5 13.5t32.5 -13.5t13.5 -32.5t-13.5 -32.5t-32.5 -13.5t-32.5 13.5t-13.5 32.5zM352 50q99 0 167.5 70.5t68.5 169.5t-68.5 169
t-167.5 70q-97 0 -166.5 -70.5t-69.5 -168.5q0 -99 69.5 -169.5t166.5 -70.5zM352 -17q-129 0 -220.5 90t-91.5 217t92 216.5t220 89.5q129 0 220.5 -89.5t91.5 -216.5t-91.5 -217t-220.5 -90z" />
    <glyph glyph-name="divide" unicode="&#xf7;" horiz-adv-x="679" 
d="M42 289q0 14 9.5 24t23.5 10h528q14 0 24 -10t10 -24t-10 -23.5t-24 -9.5h-528q-14 0 -23.5 9.5t-9.5 23.5zM284 48q0 23 16.5 39.5t39.5 16.5t39.5 -16.5t16.5 -39.5t-16.5 -39.5t-39.5 -16.5t-39.5 16.5t-16.5 39.5zM284 531q0 23 16.5 39.5t39.5 16.5t39.5 -16.5
t16.5 -39.5t-16.5 -39.5t-39.5 -16.5t-39.5 16.5t-16.5 39.5z" />
    <glyph glyph-name="oslash" unicode="&#xf8;" horiz-adv-x="712" 
d="M356 -17q-107 0 -192 66l-48 -48q-10 -10 -24 -10t-25 11q-10 10 -10 24t10 24l47 47q-70 83 -70 193q0 127 92 216.5t220 89.5q107 0 192 -66l47 47q10 11 24 11t24 -11q10 -10 10.5 -24t-9.5 -25l-46 -46q70 -83 70 -192q0 -127 -91.5 -217t-220.5 -90zM356 50
q99 0 167.5 70.5t68.5 169.5q0 78 -46 141l-332 -333q62 -48 142 -48zM120 290q0 -78 45 -142l333 332q-62 49 -142 49q-97 0 -166.5 -70.5t-69.5 -168.5z" />
    <glyph glyph-name="ugrave" unicode="&#xf9;" 
d="M517 587q15 0 26 -11t11 -26v-521q0 -15 -11 -26t-26 -11t-26 11t-11 26v69h-2q-21 -45 -76 -80t-117 -35q-104 0 -164.5 63.5t-60.5 167.5v336q0 15 11 26t26 11t26 -11t11 -26v-336q0 -74 43 -119.5t114 -45.5q72 0 130.5 51.5t58.5 121.5v328q0 15 11 26t26 11z
M413 684q-9 -20 -30 -14l-162 42q-16 4 -23 19.5t-1 31.5q5 16 20 23t31 0l151 -72q22 -12 14 -30z" />
    <glyph glyph-name="uacute" unicode="&#xfa;" 
d="M517 587q15 0 26 -11t11 -26v-521q0 -15 -11 -26t-26 -11t-26 11t-11 26v69h-2q-21 -45 -76 -80t-117 -35q-104 0 -164.5 63.5t-60.5 167.5v336q0 15 11 26t26 11t26 -11t11 -26v-336q0 -74 43 -119.5t114 -45.5q72 0 130.5 51.5t58.5 121.5v328q0 15 11 26t26 11z
M199 684q-8 18 14 30l151 72q16 7 31 0t20 -23q6 -16 -1 -31.5t-23 -19.5l-162 -42q-21 -6 -30 14z" />
    <glyph glyph-name="ucircumflex" unicode="&#xfb;" 
d="M517 587q15 0 26 -11t11 -26v-521q0 -15 -11 -26t-26 -11t-26 11t-11 26v69h-2q-21 -45 -76 -80t-117 -35q-104 0 -164.5 63.5t-60.5 167.5v336q0 15 11 26t26 11t26 -11t11 -26v-336q0 -74 43 -119.5t114 -45.5q72 0 130.5 51.5t58.5 121.5v328q0 15 11 26t26 11z
M306 797q6 0 10.5 -2t13 -10t17 -16.5l28 -28t40.5 -38.5q10 -9 6 -22t-19 -17q-12 -3 -28 11l-68 57l-68 -57q-16 -14 -28 -11q-15 4 -19 17t6 22q21 19 40.5 38.5l28 28t17 16.5t13 10t10.5 2z" />
    <glyph glyph-name="udieresis" unicode="&#xfc;" 
d="M517 587q15 0 26 -11t11 -26v-521q0 -15 -11 -26t-26 -11t-26 11t-11 26v69h-2q-21 -45 -76 -80t-117 -35q-104 0 -164.5 63.5t-60.5 167.5v336q0 15 11 26t26 11t26 -11t11 -26v-336q0 -74 43 -119.5t114 -45.5q72 0 130.5 51.5t58.5 121.5v328q0 15 11 26t26 11z
M163 721q0 19 13.5 32.5t32.5 13.5t32.5 -13.5t13.5 -32.5t-13.5 -32.5t-32.5 -13.5t-32.5 13.5t-13.5 32.5zM361 721q0 19 13.5 32.5t32.5 13.5t32.5 -13.5t13.5 -32.5t-13.5 -32.5t-32.5 -13.5t-32.5 13.5t-13.5 32.5z" />
    <glyph glyph-name="yacute" unicode="&#xfd;" horiz-adv-x="584" 
d="M569 535l-321 -692q-7 -14 -21.5 -19.5t-27.5 0.5q-14 7 -19 21.5t2 27.5l71 151l-238 511q-7 13 -2 27.5t19 21.5q13 6 27.5 0.5t21.5 -19.5l211 -461l211 461q7 14 21.5 19.5t27.5 -0.5q14 -7 19 -21.5t-2 -27.5zM176 684q-8 18 14 30l151 72q16 7 31 0t20 -23
q6 -16 -1 -31.5t-23 -19.5l-162 -42q-21 -6 -30 14z" />
    <glyph glyph-name="thorn" unicode="&#xfe;" horiz-adv-x="724" 
d="M134 721v-259h2q89 134 242 134q128 0 217 -89.5t89 -217.5q0 -127 -89 -216.5t-217 -89.5q-154 0 -242 134h-2v-259q0 -15 -11 -26t-26 -11t-26 11t-11 26v863q0 15 11 26t26 11t26 -11t11 -26zM134 289q0 -99 70 -169t168 -70q99 0 167.5 70t68.5 169q0 100 -68.5 170
t-167.5 70q-98 0 -168 -70t-70 -170z" />
    <glyph glyph-name="ydieresis" unicode="&#xff;" horiz-adv-x="584" 
d="M147 721q0 19 13.5 32.5t32.5 13.5t32.5 -13.5t13.5 -32.5t-13.5 -32.5t-32.5 -13.5t-32.5 13.5t-13.5 32.5zM345 721q0 19 13.5 32.5t32.5 13.5t32.5 -13.5t13.5 -32.5t-13.5 -32.5t-32.5 -13.5t-32.5 13.5t-13.5 32.5zM569 535l-321 -692q-7 -14 -21.5 -19.5t-27.5 0.5
q-14 7 -19 21.5t2 27.5l71 151l-238 511q-7 13 -2 27.5t19 21.5q13 6 27.5 0.5t21.5 -19.5l211 -461l211 461q7 14 21.5 19.5t27.5 -0.5q14 -7 19 -21.5t-2 -27.5z" />
    <glyph glyph-name="Amacron" unicode="&#x100;" horiz-adv-x="690" 
d="M243 836q0 14 10 24t24 10h135q14 0 24 -10t10 -24t-10 -24t-24 -10h-135q-14 0 -24 10t-10 24zM23 43l286 691q10 24 36 24t36 -24l286 -691q6 -13 0 -28t-20 -20q-14 -6 -28.5 0t-20.5 20l-64 154h-378l-64 -154q-6 -14 -20.5 -20t-28.5 0q-14 5 -20 20t0 28zM345 626
l-162 -390h323z" />
    <glyph glyph-name="amacron" unicode="&#x101;" horiz-adv-x="724" 
d="M251 716q0 14 10 24t24 10h135q14 0 24 -10t10 -24t-10 -24t-24 -10h-135q-14 0 -24 10t-10 24zM590 29v88h-2q-89 -134 -242 -134q-128 0 -217 89.5t-89 217.5q0 127 89 216.5t217 89.5q154 0 242 -134h2v88q0 15 11 26t26 11t26 -11t11 -26v-521q0 -15 -11 -26t-26 -11
t-26 11t-11 26zM590 290q0 99 -70 169t-168 70q-99 0 -167.5 -70t-68.5 -169q0 -100 68.5 -170t167.5 -70q98 0 168 70t70 170z" />
    <glyph glyph-name="Aogonek" unicode="&#x104;" horiz-adv-x="691" 
d="M23 43l286 691q10 24 36 24t36 -24l286 -691q8 -19 -3.5 -35t-32.5 -16q-5 0 -15 4t-16 4q-28 0 -47.5 -19.5t-19.5 -47.5t19.5 -47.5t47.5 -19.5q11 0 24.5 5.5t17.5 5.5q7 0 12.5 -6t5.5 -13q0 -21 -27.5 -33.5t-52.5 -12.5q-45 0 -76.5 31.5t-31.5 76.5t31.5 76.5
t76.5 31.5q8 0 13 -1l-59 142h-378l-64 -154q-6 -14 -20.5 -20t-28.5 0q-14 5 -20 20t0 28zM345 626l-162 -390h323z" />
    <glyph glyph-name="aogonek" unicode="&#x105;" horiz-adv-x="724" 
d="M590 26v91h-2q-89 -134 -242 -134q-128 0 -217 89.5t-89 217.5q0 127 89 216.5t217 89.5q154 0 242 -134h2v88q0 15 11 26t26 11t26 -11t11 -26v-521q0 -15 -11 -26t-26 -11q-30 0 -48.5 -18.5t-18.5 -44.5t19.5 -44.5t47.5 -18.5q11 0 24.5 5.5t17.5 5.5q7 0 12.5 -6
t5.5 -13q0 -21 -27.5 -33.5t-52.5 -12.5q-45 0 -76.5 31.5t-31.5 76.5q0 41 26 70.5t65 35.5zM590 290q0 99 -70 169t-168 70q-99 0 -167.5 -70t-68.5 -169q0 -100 68.5 -170t167.5 -70q98 0 168 70t70 170z" />
    <glyph glyph-name="Cacute" unicode="&#x106;" horiz-adv-x="751" 
d="M708 650q10 -10 10.5 -24t-9.5 -24q-11 -10 -24.5 -10t-23.5 10q-101 98 -230 98q-135 0 -228.5 -95.5t-92.5 -230.5q-1 -135 92.5 -229.5t228.5 -94.5q131 0 230 94q10 9 24 9t24 -10t9.5 -23.5t-10.5 -23.5q-118 -114 -278 -113q-163 -1 -279.5 114t-116.5 277
q0 163 116.5 278.5t279.5 114.5q160 1 278 -117zM316 801q-8 18 14 30l151 72q16 7 31 0t20 -23q6 -16 -1 -31.5t-23 -19.5l-162 -42q-21 -6 -30 14z" />
    <glyph glyph-name="cacute" unicode="&#x107;" 
d="M242 684q-8 18 14 30l151 72q16 7 31 0t20 -23q6 -16 -1 -31.5t-23 -19.5l-162 -42q-21 -6 -30 14zM521 454q-75 74 -169 75q-97 0 -166.5 -70.5t-69.5 -168.5q0 -99 69.5 -169.5t166.5 -70.5q94 0 170 76q10 9 23.5 8t23.5 -11t10.5 -25t-9.5 -24q-94 -91 -218 -91
q-129 0 -220.5 90t-91.5 217t92 216.5t220 89.5q125 0 218 -91q9 -10 9.5 -25t-9.5 -25t-24 -10.5t-25 9.5z" />
    <glyph glyph-name="Ccaron" unicode="&#x10c;" horiz-adv-x="751" 
d="M708 650q10 -10 10.5 -24t-9.5 -24q-11 -10 -24.5 -10t-23.5 10q-101 98 -230 98q-135 0 -228.5 -95.5t-92.5 -230.5q-1 -135 92.5 -229.5t228.5 -94.5q131 0 230 94q10 9 24 9t24 -10t9.5 -23.5t-10.5 -23.5q-118 -114 -278 -113q-163 -1 -279.5 114t-116.5 277
q0 163 116.5 278.5t279.5 114.5q160 1 278 -117zM430 790q-6 0 -10.5 2t-13 10t-17 16.5l-28 28t-40.5 38.5q-10 9 -6 22t19 17q12 3 28 -11l68 -57l68 57q16 14 28 11q15 -4 19 -17t-6 -22q-21 -19 -40.5 -38.5l-28 -28t-17 -16.5t-13 -10t-10.5 -2z" />
    <glyph glyph-name="ccaron" unicode="&#x10d;" 
d="M352 660q-6 0 -10.5 2t-13 10t-17 16.5l-28 28t-40.5 38.5q-10 9 -6 22t19 17q12 3 28 -11l68 -57l68 57q16 14 28 11q15 -4 19 -17t-6 -22q-21 -19 -40.5 -38.5l-28 -28t-17 -16.5t-13 -10t-10.5 -2zM521 454q-75 74 -169 75q-97 0 -166.5 -70.5t-69.5 -168.5
q0 -99 69.5 -169.5t166.5 -70.5q94 0 170 76q10 9 23.5 8t23.5 -11t10.5 -25t-9.5 -24q-94 -91 -218 -91q-129 0 -220.5 90t-91.5 217t92 216.5t220 89.5q125 0 218 -91q9 -10 9.5 -25t-9.5 -25t-24 -10.5t-25 9.5z" />
    <glyph glyph-name="Dcaron" unicode="&#x10e;" horiz-adv-x="726" 
d="M60 37v676q0 15 11.5 26t26.5 11h218q155 0 265 -110t110 -265t-110 -265t-265 -110h-219q-15 0 -26 11t-11 26zM615 375q0 128 -87 217.5t-212 89.5h-188v-614h188q125 0 212 90t87 217zM329 790q-6 0 -10.5 2t-13 10t-17 16.5l-28 28t-40.5 38.5q-10 9 -6 22t19 17
q12 3 28 -11l68 -57l68 57q16 14 28 11q15 -4 19 -17t-6 -22q-21 -19 -40.5 -38.5l-28 -28t-17 -16.5t-13 -10t-10.5 -2z" />
    <glyph glyph-name="dcaron" unicode="&#x10f;" horiz-adv-x="815" 
d="M714 579q-16 7 -11 24l34 133q4 13 16.5 19t25.5 1q13 -4 18.5 -16.5t0.5 -25.5l-59 -124q-10 -17 -25 -11zM590 29v88h-2q-89 -134 -242 -134q-128 0 -217 89.5t-89 217.5q0 127 89 216.5t217 89.5q154 0 242 -134h2v259q0 15 11 26t26 11t26 -11t11 -26v-692
q0 -15 -11 -26t-26 -11t-26 11t-11 26zM590 290q0 99 -70 169t-168 70q-99 0 -167.5 -70t-68.5 -169q0 -100 68.5 -170t167.5 -70q98 0 168 70t70 170z" />
    <glyph glyph-name="Emacron" unicode="&#x112;" horiz-adv-x="641" 
d="M229 836q0 14 10 24t24 10h135q14 0 24 -10t10 -24t-10 -24t-24 -10h-135q-14 0 -24 10t-10 24zM60 37v676q0 15 11 26t26 11h475q14 0 24 -10t10 -24t-10 -24t-24 -10h-438v-274h369q14 0 24 -10t10 -24t-10 -24t-24 -10h-369v-272h438q14 -1 24 -11t10 -23
q0 -14 -10 -24t-24 -10h-475q-15 0 -26 11t-11 26z" />
    <glyph glyph-name="emacron" unicode="&#x113;" horiz-adv-x="699" 
d="M248 716q0 14 10 24t24 10h135q14 0 24 -10t10 -24t-10 -24t-24 -10h-135q-14 0 -24 10t-10 24zM659 290q0 -14 -10.5 -24t-24.5 -10h-509q13 -88 79 -147t155 -59q59 0 109.5 27t82.5 74q10 17 29 17q21 0 30.5 -19t-1.5 -35q-37 -56 -104 -93.5t-146 -37.5
q-128 0 -218.5 90t-90.5 217t90.5 216.5t218.5 89.5q127 0 217.5 -89t92.5 -217zM115 324h469q-13 87 -79.5 146t-155.5 59t-155 -59t-79 -146z" />
    <glyph glyph-name="Edotaccent" unicode="&#x116;" horiz-adv-x="641" 
d="M392 836q0 -24 -17.5 -41t-40.5 -17t-40 17t-17 41q0 23 17 40t40 17t40.5 -17t17.5 -40zM60 37v676q0 15 11 26t26 11h475q14 0 24 -10t10 -24t-10 -24t-24 -10h-438v-274h369q14 0 24 -10t10 -24t-10 -24t-24 -10h-369v-272h438q14 -1 24 -11t10 -23q0 -14 -10 -24
t-24 -10h-475q-15 0 -26 11t-11 26z" />
    <glyph glyph-name="edotaccent" unicode="&#x117;" horiz-adv-x="699" 
d="M407 731q0 -24 -17.5 -41t-40.5 -17t-40 17t-17 41q0 23 17 40t40 17t40.5 -17t17.5 -40zM659 290q0 -14 -10.5 -24t-24.5 -10h-509q13 -88 79 -147t155 -59q59 0 109.5 27t82.5 74q10 17 29 17q21 0 30.5 -19t-1.5 -35q-37 -56 -104 -93.5t-146 -37.5q-128 0 -218.5 90
t-90.5 217t90.5 216.5t218.5 89.5q127 0 217.5 -89t92.5 -217zM115 324h469q-13 87 -79.5 146t-155.5 59t-155 -59t-79 -146z" />
    <glyph glyph-name="Eogonek" unicode="&#x118;" horiz-adv-x="641" 
d="M60 37v676q0 15 11 26t26 11h475q14 0 24 -10t10 -24t-10 -24t-24 -10h-438v-274h369q14 0 24 -10t10 -24t-10 -24t-24 -10h-369v-272h438q14 -1 24 -11t10 -23q0 -14 -10 -24t-24 -10h-32q-26 0 -43.5 -20t-17.5 -47q0 -28 19.5 -47.5t47.5 -19.5q11 0 24.5 5.5
t17.5 5.5q7 0 12.5 -6t5.5 -13q0 -21 -27.5 -33.5t-52.5 -12.5q-45 0 -76.5 31.5t-31.5 76.5q0 50 35 80h-356q-15 0 -26 11t-11 26z" />
    <glyph glyph-name="eogonek" unicode="&#x119;" horiz-adv-x="699" 
d="M378 -15q-20 -2 -29 -2q-128 0 -218.5 90t-90.5 217t90.5 216.5t218.5 89.5q127 0 217.5 -89t92.5 -217q0 -14 -10.5 -24t-24.5 -10h-509q13 -88 79 -147t155 -59q59 0 109 27t82 74q10 17 29 17q21 0 31 -19t-1 -35q-48 -73 -138 -109q-18 -8 -29.5 -26.5t-11.5 -39.5
q0 -30 19.5 -51.5t47.5 -21.5q11 0 24.5 5.5t17.5 5.5q7 0 12.5 -6t5.5 -13q0 -21 -27.5 -33.5t-52.5 -12.5q-45 0 -76.5 31.5t-31.5 76.5q0 33 19 65zM115 324h469q-13 87 -79.5 146t-155.5 59t-155 -59t-79 -146z" />
    <glyph glyph-name="Ecaron" unicode="&#x11a;" horiz-adv-x="641" 
d="M60 37v676q0 15 11 26t26 11h475q14 0 24 -10t10 -24t-10 -24t-24 -10h-438v-274h369q14 0 24 -10t10 -24t-10 -24t-24 -10h-369v-272h438q14 -1 24 -11t10 -23q0 -14 -10 -24t-24 -10h-475q-15 0 -26 11t-11 26zM337 790q-6 0 -10.5 2t-13 10t-17 16.5l-28 28
t-40.5 38.5q-10 9 -6 22t19 17q12 3 28 -11l68 -57l68 57q16 14 28 11q15 -4 19 -17t-6 -22q-21 -19 -40.5 -38.5l-28 -28t-17 -16.5t-13 -10t-10.5 -2z" />
    <glyph glyph-name="ecaron" unicode="&#x11b;" horiz-adv-x="699" 
d="M659 290q0 -14 -10.5 -24t-24.5 -10h-509q13 -88 79 -147t155 -59q59 0 109.5 27t82.5 74q10 17 29 17q21 0 30.5 -19t-1.5 -35q-37 -56 -104 -93.5t-146 -37.5q-128 0 -218.5 90t-90.5 217t90.5 216.5t218.5 89.5q127 0 217.5 -89t92.5 -217zM115 324h469
q-13 87 -79.5 146t-155.5 59t-155 -59t-79 -146zM349 660q-6 0 -10.5 2t-13 10t-17 16.5l-28 28t-40.5 38.5q-10 9 -6 22t19 17q12 3 28 -11l68 -57l68 57q16 14 28 11q15 -4 19 -17t-6 -22q-21 -19 -40.5 -38.5l-28 -28t-17 -16.5t-13 -10t-10.5 -2z" />
    <glyph glyph-name="uni0122" unicode="&#x122;" horiz-adv-x="785" 
d="M431 408h264q14 0 24 -10t10 -24v-241q0 -12 -9 -23q-117 -128 -289 -127q-107 0 -198.5 52t-144.5 142.5t-53 197.5q0 162 116 277t280 115q161 0 279 -116q10 -11 10 -24.5t-10 -23.5q-10 -11 -24 -11t-24 11q-102 97 -230 97q-135 0 -228.5 -95t-92.5 -230
q-1 -135 92.5 -230t228.5 -95q126 0 223 91v199h-224q-14 0 -24.5 10t-10.5 24t10.5 24t24.5 10zM412 -181q33 0 33 30v30q-6 -3 -14 -3q-19 0 -32 13t-13 32t13 32t32 13t32 -13t13 -32v-72q0 -61 -64 -61q-16 0 -16 15q0 16 16 16z" />
    <glyph glyph-name="uni0123" unicode="&#x123;" horiz-adv-x="723" 
d="M112 -103q0 18 16.5 29.5t33.5 1.5q91 -49 190 -49q110 0 173 43t63 155v33q-38 -56 -99.5 -91.5t-136.5 -35.5q-129 0 -220.5 90t-91.5 217t91.5 216.5t220.5 89.5q149 0 237 -134v88q0 15 10.5 26t25.5 11t26.5 -11t11.5 -26v-473q0 -135 -86 -200t-225 -65
q-112 0 -222 55q-18 9 -18 30zM589 290q0 99 -69 169t-168 70q-98 0 -167 -70t-69 -169q0 -100 69 -170t167 -70q99 0 168 70t69 170zM371 778q-33 0 -33 -30v-30q6 3 14 3q19 0 32 -13t13 -32t-13 -32t-32 -13t-32 13t-13 32v72q0 61 64 61q16 0 16 -15q0 -16 -16 -16z" />
    <glyph glyph-name="Imacron" unicode="&#x12a;" horiz-adv-x="194" 
d="M60 29v692q0 15 11 26t26 11t26 -11t11 -26v-692q0 -15 -11 -26t-26 -11t-26 11t-11 26zM7 836q0 14 10 24t24 10h112q14 0 24 -10t10 -24t-10 -24t-24 -10h-112q-14 0 -24 10t-10 24z" />
    <glyph glyph-name="imacron" unicode="&#x12b;" horiz-adv-x="194" 
d="M60 29v521q0 15 11 26t26 11t26 -11t11 -26v-521q0 -15 -11 -26t-26 -11t-26 11t-11 26zM7 716q0 14 10 24t24 10h112q14 0 24 -10t10 -24t-10 -24t-24 -10h-112q-14 0 -24 10t-10 24z" />
    <glyph glyph-name="Iogonek" unicode="&#x12e;" horiz-adv-x="194" 
d="M16 -80q0 62 48 92q-4 7 -4 17v692q0 15 11 26t26 11t26 -11t11 -26v-692q0 -26 -25 -35q-32 -14 -32 -60q0 -28 19.5 -48t47.5 -20q2 0 7 0.5t6 0.5q16 0 21 -19.5t-11 -26.5q-19 -9 -43 -9q-45 0 -76.5 31.5t-31.5 76.5z" />
    <glyph glyph-name="iogonek" unicode="&#x12f;" horiz-adv-x="196" 
d="M61 32v518q0 15 11 26t26 11t26 -11t11 -26v-518q0 -26 -28 -38q-35 -18 -35 -60q0 -28 19.5 -48t47.5 -20q1 0 6 0.5t7 0.5q16 0 21 -19.5t-11 -26.5q-19 -9 -43 -9q-45 0 -76.5 31.5t-31.5 76.5q0 62 53 94q-3 12 -3 18zM46 716q0 21 15 36t36 15t36 -15t15 -36
t-15 -36t-36 -15t-36 15t-15 36z" />
    <glyph glyph-name="dotlessi" unicode="&#x131;" horiz-adv-x="194" 
d="M60 29v521q0 15 11 26t26 11t26 -11t11 -26v-521q0 -15 -11 -26t-26 -11t-26 11t-11 26z" />
    <glyph glyph-name="uni0136" unicode="&#x136;" horiz-adv-x="599" 
d="M60 29v692q0 16 10.5 26.5t26.5 10.5t26.5 -10.5t10.5 -26.5v-306l376 332q10 11 25.5 11t26.5 -11q11 -12 11.5 -28t-10.5 -26l-366 -318l365 -319q12 -10 11.5 -25.5t-11.5 -27.5q-10 -11 -25.5 -11t-26.5 11l-376 333v-307q0 -16 -10.5 -26.5t-26.5 -10.5t-26.5 10.5
t-10.5 26.5zM281 -164q33 0 33 30v30q-6 -3 -14 -3q-19 0 -32 13t-13 32t13 32t32 13t32 -13t13 -32v-72q0 -61 -64 -61q-16 0 -16 15q0 16 16 16z" />
    <glyph glyph-name="uni0137" unicode="&#x137;" horiz-adv-x="510" 
d="M60 29v692q0 15 11 26t26 11t26 -11t11 -26v-386l291 244q11 10 26.5 8.5t25.5 -12.5q10 -12 8 -27t-13 -25l-284 -233l284 -233q11 -10 13 -25t-8 -27q-10 -11 -25.5 -12.5t-26.5 8.5l-291 244v-216q0 -15 -11 -26t-26 -11t-26 11t-11 26zM240 -164q33 0 33 30v30
q-6 -3 -14 -3q-19 0 -32 13t-13 32t13 32t32 13t32 -13t13 -32v-72q0 -61 -64 -61q-16 0 -16 15q0 16 16 16z" />
    <glyph glyph-name="Lacute" unicode="&#x139;" horiz-adv-x="586" 
d="M60 34v687q0 15 11 26t26 11t26 -11t11 -26v-653h403q14 0 24 -10t10 -24t-10 -24t-24 -10h-443q-14 0 -24 10t-10 24zM213 801q-8 18 14 30l151 72q16 7 31 0t20 -23q6 -16 -1 -31.5t-23 -19.5l-162 -42q-21 -6 -30 14z" />
    <glyph glyph-name="lacute" unicode="&#x13a;" horiz-adv-x="194" 
d="M60 29v692q0 15 11 26t26 11t26 -11t11 -26v-692q0 -15 -11 -26t-26 -11t-26 11t-11 26zM-11 801q-8 18 14 30l151 72q16 7 31 0t20 -23q6 -16 -1 -31.5t-23 -19.5l-162 -42q-21 -6 -30 14z" />
    <glyph glyph-name="uni013B" unicode="&#x13b;" horiz-adv-x="586" 
d="M60 34v687q0 15 11 26t26 11t26 -11t11 -26v-653h403q14 0 24 -10t10 -24t-10 -24t-24 -10h-443q-14 0 -24 10t-10 24zM297 -164q33 0 33 30v30q-6 -3 -14 -3q-19 0 -32 13t-13 32t13 32t32 13t32 -13t13 -32v-72q0 -61 -64 -61q-16 0 -16 15q0 16 16 16z" />
    <glyph glyph-name="uni013C" unicode="&#x13c;" horiz-adv-x="194" 
d="M60 29v692q0 15 11 26t26 11t26 -11t11 -26v-692q0 -15 -11 -26t-26 -11t-26 11t-11 26zM78 -174q33 0 33 30v30q-6 -3 -14 -3q-19 0 -32 13t-13 32t13 32t32 13t32 -13t13 -32v-72q0 -61 -64 -61q-16 0 -16 15q0 16 16 16z" />
    <glyph glyph-name="Lcaron" unicode="&#x13d;" horiz-adv-x="586" 
d="M484 579q-16 7 -11 24l34 133q4 13 16.5 19t25.5 1q13 -4 18.5 -16.5t0.5 -25.5l-59 -124q-10 -17 -25 -11zM60 34v687q0 15 11 26t26 11t26 -11t11 -26v-653h403q14 0 24 -10t10 -24t-10 -24t-24 -10h-443q-14 0 -24 10t-10 24z" />
    <glyph glyph-name="lcaron" unicode="&#x13e;" horiz-adv-x="282" 
d="M181 579q-16 7 -11 24l34 133q4 13 16.5 19t25.5 1q13 -4 18.5 -16.5t0.5 -25.5l-59 -124q-10 -17 -25 -11zM60 29v692q0 15 11 26t26 11t26 -11t11 -26v-692q0 -15 -11 -26t-26 -11t-26 11t-11 26z" />
    <glyph glyph-name="Lslash" unicode="&#x141;" horiz-adv-x="606" 
d="M79 34v284l-35 -7q-14 -3 -23.5 5t-9.5 22t9.5 26t23.5 15l35 7v335q0 15 11 26t26 11t26 -11t11 -26v-319l222 48q14 3 24 -5t10 -22t-10 -26t-24 -15l-222 -48v-266h403q14 0 24 -10t10 -24t-10 -24t-24 -10h-443q-14 0 -24 10t-10 24z" />
    <glyph glyph-name="lslash" unicode="&#x142;" horiz-adv-x="242" 
d="M197 363l-39 -9v-325q0 -15 -11 -26t-26 -11t-26 11t-11 26v307l-37 -8q-14 -4 -24.5 4t-10.5 22t10 26t24 16l38 9v316q0 15 11 26t26 11t26 -11t11 -26v-299l38 9q14 4 24 -4t10 -22t-9.5 -26t-23.5 -16z" />
    <glyph glyph-name="Nacute" unicode="&#x143;" horiz-adv-x="702" 
d="M605 758q16 0 26.5 -10.5t10.5 -26.5v-692q0 -16 -11 -26.5t-27 -10.5q-20 0 -31 16l-439 602v-581q0 -16 -10.5 -26.5t-26.5 -10.5t-26.5 10.5t-10.5 26.5v692q0 16 11 26.5t26 10.5q21 0 30 -14l441 -604v581q0 16 10.5 26.5t26.5 10.5zM241 801q-8 18 14 30l151 72
q16 7 31 0t20 -23q6 -16 -1 -31.5t-23 -19.5l-162 -42q-21 -6 -30 14z" />
    <glyph glyph-name="nacute" unicode="&#x144;" 
d="M97 -8q-15 0 -26 11t-11 26v521q0 15 11 26t26 11t26 -11t11 -26v-69h2q21 45 76 80t117 35q104 0 164.5 -63.5t60.5 -167.5v-336q0 -15 -11 -26t-26 -11t-26 11t-11 26v336q0 74 -43 119.5t-114 45.5q-72 0 -130.5 -51.5t-58.5 -121.5v-328q0 -15 -11 -26t-26 -11z
M203 684q-8 18 14 30l151 72q16 7 31 0t20 -23q6 -16 -1 -31.5t-23 -19.5l-162 -42q-21 -6 -30 14z" />
    <glyph glyph-name="uni0145" unicode="&#x145;" horiz-adv-x="702" 
d="M605 758q16 0 26.5 -10.5t10.5 -26.5v-692q0 -16 -11 -26.5t-27 -10.5q-20 0 -31 16l-439 602v-581q0 -16 -10.5 -26.5t-26.5 -10.5t-26.5 10.5t-10.5 26.5v692q0 16 11 26.5t26 10.5q21 0 30 -14l441 -604v581q0 16 10.5 26.5t26.5 10.5zM331 -164q33 0 33 30v30
q-6 -3 -14 -3q-19 0 -32 13t-13 32t13 32t32 13t32 -13t13 -32v-72q0 -61 -64 -61q-16 0 -16 15q0 16 16 16z" />
    <glyph glyph-name="uni0146" unicode="&#x146;" 
d="M97 -8q-15 0 -26 11t-11 26v521q0 15 11 26t26 11t26 -11t11 -26v-69h2q21 45 76 80t117 35q104 0 164.5 -63.5t60.5 -167.5v-336q0 -15 -11 -26t-26 -11t-26 11t-11 26v336q0 74 -43 119.5t-114 45.5q-72 0 -130.5 -51.5t-58.5 -121.5v-328q0 -15 -11 -26t-26 -11z
M287 -164q33 0 33 30v30q-6 -3 -14 -3q-19 0 -32 13t-13 32t13 32t32 13t32 -13t13 -32v-72q0 -61 -64 -61q-16 0 -16 15q0 16 16 16z" />
    <glyph glyph-name="Ncaron" unicode="&#x147;" horiz-adv-x="702" 
d="M350 790q-6 0 -10.5 2t-13 10t-17 16.5l-28 28t-40.5 38.5q-10 9 -6 22t19 17q12 3 28 -11l68 -57l68 57q16 14 28 11q15 -4 19 -17t-6 -22q-21 -19 -40.5 -38.5l-28 -28t-17 -16.5t-13 -10t-10.5 -2zM605 758q16 0 26.5 -10.5t10.5 -26.5v-692q0 -16 -11 -26.5
t-27 -10.5q-20 0 -31 16l-439 602v-581q0 -16 -10.5 -26.5t-26.5 -10.5t-26.5 10.5t-10.5 26.5v692q0 16 11 26.5t26 10.5q21 0 30 -14l441 -604v581q0 16 10.5 26.5t26.5 10.5z" />
    <glyph glyph-name="ncaron" unicode="&#x148;" 
d="M97 -8q-15 0 -26 11t-11 26v521q0 15 11 26t26 11t26 -11t11 -26v-69h2q21 45 76 80t117 35q104 0 164.5 -63.5t60.5 -167.5v-336q0 -15 -11 -26t-26 -11t-26 11t-11 26v336q0 74 -43 119.5t-114 45.5q-72 0 -130.5 -51.5t-58.5 -121.5v-328q0 -15 -11 -26t-26 -11z
M329 660q-6 0 -10.5 2t-13 10t-17 16.5l-28 28t-40.5 38.5q-10 9 -6 22t19 17q12 3 28 -11l68 -57l68 57q16 14 28 11q15 -4 19 -17t-6 -22q-21 -19 -40.5 -38.5l-28 -28t-17 -16.5t-13 -10t-10.5 -2z" />
    <glyph glyph-name="Omacron" unicode="&#x14c;" horiz-adv-x="862" 
d="M330 836q0 14 10 24t24 10h135q14 0 24 -10t10 -24t-10 -24t-24 -10h-135q-14 0 -24 10t-10 24zM751 375q0 135 -93.5 230t-226.5 95t-226.5 -95t-93.5 -230t93.5 -230t226.5 -95t226.5 95t93.5 230zM827 375q0 -162 -116 -277t-280 -115t-280 115t-116 277t116 277
t280 115t280 -115t116 -277z" />
    <glyph glyph-name="omacron" unicode="&#x14d;" horiz-adv-x="704" 
d="M251 716q0 14 10 24t24 10h135q14 0 24 -10t10 -24t-10 -24t-24 -10h-135q-14 0 -24 10t-10 24zM352 50q99 0 167.5 70.5t68.5 169.5t-68.5 169t-167.5 70q-97 0 -166.5 -70.5t-69.5 -168.5q0 -99 69.5 -169.5t166.5 -70.5zM352 -17q-129 0 -220.5 90t-91.5 217t92 216.5
t220 89.5q129 0 220.5 -89.5t91.5 -216.5t-91.5 -217t-220.5 -90z" />
    <glyph glyph-name="Ohungarumlaut" unicode="&#x150;" horiz-adv-x="862" 
d="M751 375q0 135 -93.5 230t-226.5 95t-226.5 -95t-93.5 -230t93.5 -230t226.5 -95t226.5 95t93.5 230zM827 375q0 -162 -116 -277t-280 -115t-280 115t-116 277t116 277t280 115t280 -115t116 -277zM471 792q-13 5 -18.5 17t-0.5 24l30 65q5 13 18 18t27 0q13 -5 18 -17
t0 -24l-30 -65q-5 -13 -17.5 -18t-26.5 0zM365 792q-13 5 -18 17t0 24l30 65q5 13 17.5 18t26.5 0q13 -5 18.5 -17t0.5 -24l-30 -65q-5 -13 -18 -18t-27 0z" />
    <glyph glyph-name="ohungarumlaut" unicode="&#x151;" horiz-adv-x="704" 
d="M352 50q99 0 167.5 70.5t68.5 169.5t-68.5 169t-167.5 70q-97 0 -166.5 -70.5t-69.5 -168.5q0 -99 69.5 -169.5t166.5 -70.5zM352 -17q-129 0 -220.5 90t-91.5 217t92 216.5t220 89.5q129 0 220.5 -89.5t91.5 -216.5t-91.5 -217t-220.5 -90zM390 627q-13 5 -18.5 17
t-0.5 24l30 65q5 13 18 18t27 0q13 -5 18 -17t0 -24l-30 -65q-5 -13 -17.5 -18t-26.5 0zM284 627q-13 5 -18 17t0 24l30 65q5 13 17.5 18t26.5 0q13 -5 18.5 -17t0.5 -24l-30 -65q-5 -13 -18 -18t-27 0z" />
    <glyph glyph-name="OE" unicode="&#x152;" horiz-adv-x="1331" 
d="M750 37v120q-53 -80 -137 -127t-182 -47q-164 0 -280 115t-116 277t116 277t280 115q98 0 182 -47t137 -127v120q0 15 11 26t26 11h475q14 0 24 -10t10 -24t-10 -24t-24 -10h-438v-274h369q14 0 24 -10t10 -24t-10 -24t-24 -10h-369v-272h438q14 -1 24 -11t10 -23
q0 -14 -10 -24t-24 -10h-475q-15 0 -26 11t-11 26zM431 50q126 0 217.5 86.5t101.5 211.5v53q-10 126 -101.5 212.5t-217.5 86.5q-133 0 -226.5 -95t-93.5 -230t93.5 -230t226.5 -95z" />
    <glyph glyph-name="oe" unicode="&#x153;" horiz-adv-x="1244" 
d="M1204 290q0 -14 -10.5 -24t-24.5 -10h-509q13 -88 79 -147t155 -59q59 0 109.5 27t82.5 74q10 17 29 17q21 0 30.5 -19t-1.5 -35q-37 -56 -104 -93.5t-146 -37.5q-89 0 -161.5 49t-108.5 129q-36 -80 -109.5 -129t-162.5 -49q-129 0 -220.5 90t-91.5 217t92 216.5
t220 89.5q89 0 162.5 -49t109.5 -129q36 80 108.5 129t161.5 49q127 0 217.5 -89t92.5 -217zM352 50q99 0 167.5 70.5t68.5 169.5t-68.5 169t-167.5 70q-97 0 -166.5 -70.5t-69.5 -168.5q0 -99 69.5 -169.5t166.5 -70.5zM660 324h469q-13 87 -79.5 146t-155.5 59t-155 -59
t-79 -146z" />
    <glyph glyph-name="Racute" unicode="&#x154;" horiz-adv-x="663" 
d="M521 13l-127 260h-260v-244q0 -16 -10.5 -26.5t-26.5 -10.5t-26.5 10.5t-10.5 26.5v684q0 16 11 26.5t27 10.5h287q98 0 168 -70t70 -169q0 -75 -43 -136t-112 -87l119 -243q7 -14 2 -28.5t-19 -20.5q-14 -7 -28 -2t-21 19zM547 511q0 71 -47 121t-115 50h-251v-341h251
q68 0 115 49.5t47 120.5zM221 801q-8 18 14 30l151 72q16 7 31 0t20 -23q6 -16 -1 -31.5t-23 -19.5l-162 -42q-21 -6 -30 14z" />
    <glyph glyph-name="racute" unicode="&#x155;" horiz-adv-x="374" 
d="M134 551v-57h2q22 43 60.5 72.5t87.5 29.5q25 0 55 -8q27 -6 27 -35q0 -14 -10.5 -24.5t-22.5 -8.5q-1 0 -16.5 3t-32.5 3q-61 0 -105.5 -49.5t-44.5 -114.5v-333q0 -15 -10.5 -26t-25.5 -11t-26.5 11t-11.5 26v521q0 15 11 26t26 11t26 -10.5t11 -25.5zM110 684
q-8 18 14 30l151 72q16 7 31 0t20 -23q6 -16 -1 -31.5t-23 -19.5l-162 -42q-21 -6 -30 14z" />
    <glyph glyph-name="uni0156" unicode="&#x156;" horiz-adv-x="663" 
d="M521 13l-127 260h-260v-244q0 -16 -10.5 -26.5t-26.5 -10.5t-26.5 10.5t-10.5 26.5v684q0 16 11 26.5t27 10.5h287q98 0 168 -70t70 -169q0 -75 -43 -136t-112 -87l119 -243q7 -14 2 -28.5t-19 -20.5q-14 -7 -28 -2t-21 19zM547 511q0 71 -47 121t-115 50h-251v-341h251
q68 0 115 49.5t47 120.5zM278 -164q33 0 33 30v30q-6 -3 -14 -3q-19 0 -32 13t-13 32t13 32t32 13t32 -13t13 -32v-72q0 -61 -64 -61q-16 0 -16 15q0 16 16 16z" />
    <glyph glyph-name="uni0157" unicode="&#x157;" horiz-adv-x="374" 
d="M134 551v-57h2q22 43 60.5 72.5t87.5 29.5q25 0 55 -8q27 -6 27 -35q0 -14 -10.5 -24.5t-22.5 -8.5q-1 0 -16.5 3t-32.5 3q-61 0 -105.5 -49.5t-44.5 -114.5v-333q0 -15 -10.5 -26t-25.5 -11t-26.5 11t-11.5 26v521q0 15 11 26t26 11t26 -10.5t11 -25.5zM190 -164
q33 0 33 30v30q-6 -3 -14 -3q-19 0 -32 13t-13 32t13 32t32 13t32 -13t13 -32v-72q0 -61 -64 -61q-16 0 -16 15q0 16 16 16z" />
    <glyph glyph-name="Rcaron" unicode="&#x158;" horiz-adv-x="663" 
d="M521 13l-127 260h-260v-244q0 -16 -10.5 -26.5t-26.5 -10.5t-26.5 10.5t-10.5 26.5v684q0 16 11 26.5t27 10.5h287q98 0 168 -70t70 -169q0 -75 -43 -136t-112 -87l119 -243q7 -14 2 -28.5t-19 -20.5q-14 -7 -28 -2t-21 19zM547 511q0 71 -47 121t-115 50h-251v-341h251
q68 0 115 49.5t47 120.5zM321 790q-6 0 -10.5 2t-13 10t-17 16.5l-28 28t-40.5 38.5q-10 9 -6 22t19 17q12 3 28 -11l68 -57l68 57q16 14 28 11q15 -4 19 -17t-6 -22q-21 -19 -40.5 -38.5l-28 -28t-17 -16.5t-13 -10t-10.5 -2z" />
    <glyph glyph-name="rcaron" unicode="&#x159;" horiz-adv-x="374" 
d="M134 551v-57h2q22 43 60.5 72.5t87.5 29.5q25 0 55 -8q27 -6 27 -35q0 -14 -10.5 -24.5t-22.5 -8.5q-1 0 -16.5 3t-32.5 3q-61 0 -105.5 -49.5t-44.5 -114.5v-333q0 -15 -10.5 -26t-25.5 -11t-26.5 11t-11.5 26v521q0 15 11 26t26 11t26 -10.5t11 -25.5zM212 660
q-6 0 -10.5 2t-13 10t-17 16.5l-28 28t-40.5 38.5q-10 9 -6 22t19 17q12 3 28 -11l68 -57l68 57q16 14 28 11q15 -4 19 -17t-6 -22q-21 -19 -40.5 -38.5l-28 -28t-17 -16.5t-13 -10t-10.5 -2z" />
    <glyph glyph-name="Sacute" unicode="&#x15a;" horiz-adv-x="594" 
d="M188 801q-8 18 14 30l151 72q16 7 31 0t20 -23q6 -16 -1 -31.5t-23 -19.5l-162 -42q-21 -6 -30 14zM473 645q-85 55 -179 55q-72 0 -120.5 -38t-48.5 -96q0 -40 18.5 -67t48.5 -40t68 -24t78.5 -17.5t78.5 -22t68 -36.5t48.5 -61.5t18.5 -96.5q0 -96 -73.5 -157
t-181.5 -61q-137 0 -245 82q-14 9 -14 28q0 14 10 24t24 10q11 0 20 -6q91 -71 205 -71q79 0 129 41t50 110q0 50 -23.5 82t-61 47.5t-82.5 25.5t-90 22t-82.5 31t-61 58.5t-23.5 98.5q0 86 71 143.5t171 57.5q116 0 217 -65q16 -11 16 -29q0 -14 -10 -24t-24 -10
q-13 0 -20 6z" />
    <glyph glyph-name="sacute" unicode="&#x15b;" horiz-adv-x="549" 
d="M422 490q-82 39 -153 39q-64 0 -100.5 -23t-36.5 -62q0 -45 28 -69.5t70 -30.5t90.5 -14.5t90.5 -20.5t70 -49.5t28 -100.5q0 -83 -64 -129.5t-174 -46.5q-117 0 -215 60q-16 10 -16 30q0 21 17.5 31t34.5 0q94 -54 179 -54q77 0 120.5 29t43.5 83q0 38 -21 60.5
t-54 31.5t-73 14t-80.5 12.5t-73.5 23t-54 50t-21 88.5q0 76 59.5 115t151.5 39q101 0 185 -46q21 -10 21 -31q0 -20 -17.5 -29.5t-35.5 0.5zM160 684q-8 18 14 30l151 72q16 7 31 0t20 -23q6 -16 -1 -31.5t-23 -19.5l-162 -42q-21 -6 -30 14z" />
    <glyph glyph-name="Scaron" unicode="&#x160;" horiz-adv-x="594" 
d="M294 790q-6 0 -10.5 2t-13 10t-17 16.5l-28 28t-40.5 38.5q-10 9 -6 22t19 17q12 3 28 -11l68 -57l68 57q16 14 28 11q15 -4 19 -17t-6 -22q-21 -19 -40.5 -38.5l-28 -28t-17 -16.5t-13 -10t-10.5 -2zM473 645q-85 55 -179 55q-72 0 -120.5 -38t-48.5 -96q0 -40 18.5 -67
t48.5 -40t68 -24t78.5 -17.5t78.5 -22t68 -36.5t48.5 -61.5t18.5 -96.5q0 -96 -73.5 -157t-181.5 -61q-137 0 -245 82q-14 9 -14 28q0 14 10 24t24 10q11 0 20 -6q91 -71 205 -71q79 0 129 41t50 110q0 50 -23.5 82t-61 47.5t-82.5 25.5t-90 22t-82.5 31t-61 58.5
t-23.5 98.5q0 86 71 143.5t171 57.5q116 0 217 -65q16 -11 16 -29q0 -14 -10 -24t-24 -10q-13 0 -20 6z" />
    <glyph glyph-name="scaron" unicode="&#x161;" horiz-adv-x="549" 
d="M422 490q-82 39 -153 39q-64 0 -100.5 -23t-36.5 -62q0 -45 28 -69.5t70 -30.5t90.5 -14.5t90.5 -20.5t70 -49.5t28 -100.5q0 -83 -64 -129.5t-174 -46.5q-117 0 -215 60q-16 10 -16 30q0 21 17.5 31t34.5 0q94 -54 179 -54q77 0 120.5 29t43.5 83q0 38 -21 60.5
t-54 31.5t-73 14t-80.5 12.5t-73.5 23t-54 50t-21 88.5q0 76 59.5 115t151.5 39q101 0 185 -46q21 -10 21 -31q0 -20 -17.5 -29.5t-35.5 0.5zM269 660q-6 0 -10.5 2t-13 10t-17 16.5l-28 28t-40.5 38.5q-10 9 -6 22t19 17q12 3 28 -11l68 -57l68 57q16 14 28 11
q15 -4 19 -17t-6 -22q-21 -19 -40.5 -38.5l-28 -28t-17 -16.5t-13 -10t-10.5 -2z" />
    <glyph glyph-name="Tcaron" unicode="&#x164;" horiz-adv-x="598" 
d="M299 790q-6 0 -10.5 2t-13 10t-17 16.5l-28 28t-40.5 38.5q-10 9 -6 22t19 17q12 3 28 -11l68 -57l68 57q16 14 28 11q15 -4 19 -17t-6 -22q-21 -19 -40.5 -38.5l-28 -28t-17 -16.5t-13 -10t-10.5 -2zM263 29v653h-219q-14 0 -24 10t-10 24t10 24t24 10h510q14 0 24 -10
t10 -24t-10 -24t-24 -10h-217v-653q0 -15 -11 -26t-26 -11t-26 11t-11 26z" />
    <glyph glyph-name="tcaron" unicode="&#x165;" horiz-adv-x="403" 
d="M304 579q-16 7 -11 24l34 133q4 13 16.5 19t25.5 1q13 -4 18.5 -16.5t0.5 -25.5l-59 -124q-10 -17 -25 -11zM12 545q0 14 10 24t24 10h42v102q0 15 11 26t26 11t26 -11t11 -26v-102h93q14 0 24 -10t10 -24t-10 -24t-24 -10h-93v-399q0 -58 59 -58q14 0 32 12q11 8 23 8
q14 0 23.5 -9.5t9.5 -23.5q0 -24 -30 -38.5t-57 -14.5q-58 0 -96 32.5t-38 91.5v399h-42q-14 0 -24 10t-10 24z" />
    <glyph glyph-name="Umacron" unicode="&#x16a;" horiz-adv-x="699" 
d="M248 836q0 14 10 24t24 10h135q14 0 24 -10t10 -24t-10 -24t-24 -10h-135q-14 0 -24 10t-10 24zM565 273v448q0 15 11 26t26 11t26 -11t11 -26v-448q0 -120 -85 -205t-204 -85q-120 0 -205 85t-85 205v448q0 15 11 26t26 11t26 -11t11 -26v-448q0 -93 62 -158t154 -65
q91 0 153 65t62 158z" />
    <glyph glyph-name="umacron" unicode="&#x16b;" 
d="M206 716q0 14 10 24t24 10h135q14 0 24 -10t10 -24t-10 -24t-24 -10h-135q-14 0 -24 10t-10 24zM517 587q15 0 26 -11t11 -26v-521q0 -15 -11 -26t-26 -11t-26 11t-11 26v69h-2q-21 -45 -76 -80t-117 -35q-104 0 -164.5 63.5t-60.5 167.5v336q0 15 11 26t26 11t26 -11
t11 -26v-336q0 -74 43 -119.5t114 -45.5q72 0 130.5 51.5t58.5 121.5v328q0 15 11 26t26 11z" />
    <glyph glyph-name="Uring" unicode="&#x16e;" horiz-adv-x="699" 
d="M415 821q0 27 -19 44t-46 17t-46 -17t-19 -44t19 -46t46 -19t46 19t19 46zM459 820q0 -44 -32.5 -75t-76.5 -31t-76.5 31t-32.5 75q0 43 32.5 73.5t76.5 30.5t76.5 -30.5t32.5 -73.5zM565 273v448q0 15 11 26t26 11t26 -11t11 -26v-448q0 -120 -85 -205t-204 -85
q-120 0 -205 85t-85 205v448q0 15 11 26t26 11t26 -11t11 -26v-448q0 -93 62 -158t154 -65q91 0 153 65t62 158z" />
    <glyph glyph-name="uring" unicode="&#x16f;" 
d="M368 721q0 27 -19 44t-46 17t-46 -17t-19 -44t19 -46t46 -19t46 19t19 46zM412 720q0 -44 -32.5 -75t-76.5 -31t-76.5 31t-32.5 75q0 43 32.5 73.5t76.5 30.5t76.5 -30.5t32.5 -73.5zM517 587q15 0 26 -11t11 -26v-521q0 -15 -11 -26t-26 -11t-26 11t-11 26v69h-2
q-21 -45 -76 -80t-117 -35q-104 0 -164.5 63.5t-60.5 167.5v336q0 15 11 26t26 11t26 -11t11 -26v-336q0 -74 43 -119.5t114 -45.5q72 0 130.5 51.5t58.5 121.5v328q0 15 11 26t26 11z" />
    <glyph glyph-name="Uhungarumlaut" unicode="&#x170;" horiz-adv-x="699" 
d="M565 273v448q0 15 11 26t26 11t26 -11t11 -26v-448q0 -120 -85 -205t-204 -85q-120 0 -205 85t-85 205v448q0 15 11 26t26 11t26 -11t11 -26v-448q0 -93 62 -158t154 -65q91 0 153 65t62 158zM381 792q-13 5 -18.5 17t-0.5 24l30 65q5 13 18 18t27 0q13 -5 18 -17t0 -24
l-30 -65q-5 -13 -17.5 -18t-26.5 0zM275 792q-13 5 -18 17t0 24l30 65q5 13 17.5 18t26.5 0q13 -5 18.5 -17t0.5 -24l-30 -65q-5 -13 -18 -18t-27 0z" />
    <glyph glyph-name="uhungarumlaut" unicode="&#x171;" 
d="M517 587q15 0 26 -11t11 -26v-521q0 -15 -11 -26t-26 -11t-26 11t-11 26v69h-2q-21 -45 -76 -80t-117 -35q-104 0 -164.5 63.5t-60.5 167.5v336q0 15 11 26t26 11t26 -11t11 -26v-336q0 -74 43 -119.5t114 -45.5q72 0 130.5 51.5t58.5 121.5v328q0 15 11 26t26 11z
M339 627q-13 5 -18.5 17t-0.5 24l30 65q5 13 18 18t27 0q13 -5 18 -17t0 -24l-30 -65q-5 -13 -17.5 -18t-26.5 0zM233 627q-13 5 -18 17t0 24l30 65q5 13 17.5 18t26.5 0q13 -5 18.5 -17t0.5 -24l-30 -65q-5 -13 -18 -18t-27 0z" />
    <glyph glyph-name="Uogonek" unicode="&#x172;" horiz-adv-x="699" 
d="M565 273v448q0 15 11 26t26 11t26 -11t11 -26v-448q0 -92 -51.5 -165.5t-134.5 -105.5q-17 -8 -27.5 -25.5t-10.5 -39.5q0 -29 19.5 -50t47.5 -21q11 0 24.5 5.5t17.5 5.5q7 0 12.5 -6t5.5 -13q0 -21 -27.5 -33.5t-52.5 -12.5q-45 0 -76.5 31.5t-31.5 76.5q0 34 19 64
q-4 0 -11.5 -0.5t-11.5 -0.5q-120 0 -205 85t-85 205v448q0 15 11 26t26 11t26 -11t11 -26v-448q0 -93 62 -158t154 -65q91 0 153 65t62 158z" />
    <glyph glyph-name="uogonek" unicode="&#x173;" 
d="M517 587q15 0 26 -11t11 -26v-521q0 -15 -11 -26t-26 -11q-30 0 -48.5 -18.5t-18.5 -44.5t19.5 -44.5t47.5 -18.5q11 0 24.5 5.5t17.5 5.5q7 0 12.5 -6t5.5 -13q0 -21 -27.5 -33.5t-52.5 -12.5q-45 0 -76.5 31t-31.5 76q0 41 25.5 69.5t65.5 35.5v74h-2q-21 -45 -76 -80
t-117 -35q-104 0 -164.5 63.5t-60.5 167.5v336q0 15 11 26t26 11t26 -11t11 -26v-336q0 -74 43 -119.5t114 -45.5q72 0 130.5 51.5t58.5 121.5v328q0 15 11 26t26 11z" />
    <glyph glyph-name="Ydieresis" unicode="&#x178;" horiz-adv-x="626" 
d="M168 838q0 19 13.5 32.5t32.5 13.5t32.5 -13.5t13.5 -32.5t-13.5 -32.5t-32.5 -13.5t-32.5 13.5t-13.5 32.5zM366 838q0 19 13.5 32.5t32.5 13.5t32.5 -13.5t13.5 -32.5t-13.5 -32.5t-32.5 -13.5t-32.5 13.5t-13.5 32.5zM313 -8q-15 0 -26 11t-11 26v322l-254 349
q-9 12 -6.5 27.5t14.5 24.5q13 8 28.5 5.5t23.5 -14.5l231 -324l231 324q8 12 23.5 14.5t28.5 -5.5q12 -9 14.5 -24.5t-6.5 -27.5l-254 -349v-322q0 -15 -11 -26t-26 -11z" />
    <glyph glyph-name="Zacute" unicode="&#x179;" horiz-adv-x="641" 
d="M619 34q0 -14 -10 -24t-24 -10h-529q-14 0 -24 10t-10 24q0 12 8 22l481 626h-455q-14 0 -24 10t-10 24t10 24t24 10h529q14 0 24 -10t10 -24q0 -12 -8 -22l-481 -626h455q14 0 24 -10t10 -24zM209 801q-8 18 14 30l151 72q16 7 31 0t20 -23q6 -16 -1 -31.5t-23 -19.5
l-162 -42q-21 -6 -30 14z" />
    <glyph glyph-name="zacute" unicode="&#x17a;" horiz-adv-x="526" 
d="M502 545q0 -12 -8 -22l-360 -455h333q14 0 24.5 -10t10.5 -24t-10.5 -24t-24.5 -10h-408q-14 0 -24.5 10t-10.5 24q0 12 8 22l360 455h-333q-14 0 -24.5 10t-10.5 24t10.5 24t24.5 10h408q14 0 24.5 -10t10.5 -24zM154 684q-8 18 14 30l151 72q16 7 31 0t20 -23
q6 -16 -1 -31.5t-23 -19.5l-162 -42q-21 -6 -30 14z" />
    <glyph glyph-name="Zdotaccent" unicode="&#x17b;" horiz-adv-x="641" 
d="M378 836q0 -24 -17.5 -41t-40.5 -17t-40 17t-17 41q0 23 17 40t40 17t40.5 -17t17.5 -40zM619 34q0 -14 -10 -24t-24 -10h-529q-14 0 -24 10t-10 24q0 12 8 22l481 626h-455q-14 0 -24 10t-10 24t10 24t24 10h529q14 0 24 -10t10 -24q0 -12 -8 -22l-481 -626h455
q14 0 24 -10t10 -24z" />
    <glyph glyph-name="zdotaccent" unicode="&#x17c;" horiz-adv-x="526" 
d="M321 731q0 -24 -17.5 -41t-40.5 -17t-40 17t-17 41q0 23 17 40t40 17t40.5 -17t17.5 -40zM502 545q0 -12 -8 -22l-360 -455h333q14 0 24.5 -10t10.5 -24t-10.5 -24t-24.5 -10h-408q-14 0 -24.5 10t-10.5 24q0 12 8 22l360 455h-333q-14 0 -24.5 10t-10.5 24t10.5 24
t24.5 10h408q14 0 24.5 -10t10.5 -24z" />
    <glyph glyph-name="Zcaron" unicode="&#x17d;" horiz-adv-x="641" 
d="M619 34q0 -14 -10 -24t-24 -10h-529q-14 0 -24 10t-10 24q0 12 8 22l481 626h-455q-14 0 -24 10t-10 24t10 24t24 10h529q14 0 24 -10t10 -24q0 -12 -8 -22l-481 -626h455q14 0 24 -10t10 -24zM311 790q-6 0 -10.5 2t-13 10t-17 16.5l-28 28t-40.5 38.5q-10 9 -6 22
t19 17q12 3 28 -11l68 -57l68 57q16 14 28 11q15 -4 19 -17t-6 -22q-21 -19 -40.5 -38.5l-28 -28t-17 -16.5t-13 -10t-10.5 -2z" />
    <glyph glyph-name="zcaron" unicode="&#x17e;" horiz-adv-x="526" 
d="M502 545q0 -12 -8 -22l-360 -455h333q14 0 24.5 -10t10.5 -24t-10.5 -24t-24.5 -10h-408q-14 0 -24.5 10t-10.5 24q0 12 8 22l360 455h-333q-14 0 -24.5 10t-10.5 24t10.5 24t24.5 10h408q14 0 24.5 -10t10.5 -24zM266 660q-6 0 -10.5 2t-13 10t-17 16.5l-28 28
t-40.5 38.5q-10 9 -6 22t19 17q12 3 28 -11l68 -57l68 57q16 14 28 11q15 -4 19 -17t-6 -22q-21 -19 -40.5 -38.5l-28 -28t-17 -16.5t-13 -10t-10.5 -2z" />
    <glyph glyph-name="florin" unicode="&#x192;" horiz-adv-x="423" 
d="M344 513h-64l-80 -562q-9 -59 -52.5 -90.5t-103.5 -31.5q-14 0 -22 9.5t-6 23.5t13.5 23.5t28.5 9.5q26 0 45.5 14.5t23.5 41.5l79 562h-64q-14 0 -22.5 9.5t-7.5 23.5q2 14 13.5 23.5t25.5 9.5h65l7 49q9 59 52.5 90.5t103.5 31.5q14 0 22 -9.5t6 -23.5t-13.5 -23.5
t-28.5 -9.5q-26 0 -45.5 -14.5t-23.5 -41.5l-7 -49h64q14 0 22.5 -9.5t6.5 -23.5q-1 -14 -12.5 -23.5t-25.5 -9.5z" />
    <glyph glyph-name="circumflex" unicode="&#x2c6;" horiz-adv-x="432" 
d="M216 797q6 0 10.5 -2t13 -10t17 -16.5l28 -28t40.5 -38.5q10 -9 6 -22t-19 -17q-12 -3 -28 11l-68 57l-68 -57q-16 -14 -28 -11q-15 4 -19 17t6 22q21 19 40.5 38.5l28 28t17 16.5t13 10t10.5 2z" />
    <glyph glyph-name="caron" unicode="&#x2c7;" horiz-adv-x="432" 
d="M216 660q-6 0 -10.5 2t-13 10t-17 16.5l-28 28t-40.5 38.5q-10 9 -6 22t19 17q12 3 28 -11l68 -57l68 57q16 14 28 11q15 -4 19 -17t-6 -22q-21 -19 -40.5 -38.5l-28 -28t-17 -16.5t-13 -10t-10.5 -2z" />
    <glyph glyph-name="breve" unicode="&#x2d8;" horiz-adv-x="340" 
d="M280 747q0 -29 -35.5 -55.5t-74.5 -26.5t-74.5 26.5t-35.5 55.5q0 13 8.5 21.5t21.5 8.5q15 0 24 -14t21 -28t35 -14q18 0 30 8.5t17 19.5t13.5 19.5t19.5 8.5q13 0 21.5 -8.5t8.5 -21.5z" />
    <glyph glyph-name="dotaccent" unicode="&#x2d9;" horiz-adv-x="235" 
d="M175 731q0 -24 -17.5 -41t-40.5 -17t-40 17t-17 41q0 23 17 40t40 17t40.5 -17t17.5 -40z" />
    <glyph glyph-name="ring" unicode="&#x2da;" horiz-adv-x="418" 
d="M274 721q0 27 -19 44t-46 17t-46 -17t-19 -44t19 -46t46 -19t46 19t19 46zM318 720q0 -44 -32.5 -75t-76.5 -31t-76.5 31t-32.5 75q0 43 32.5 73.5t76.5 30.5t76.5 -30.5t32.5 -73.5z" />
    <glyph glyph-name="ogonek" unicode="&#x2db;" horiz-adv-x="308" 
d="M248 -142q0 -21 -27.5 -33.5t-52.5 -12.5q-45 0 -76.5 31.5t-31.5 76.5t31.5 76.5t76.5 31.5q6 0 20 -2v-26q-28 0 -47.5 -19.5t-19.5 -47.5t19.5 -47.5t47.5 -19.5q11 0 24.5 5.5t17.5 5.5q7 0 12.5 -6t5.5 -13z" />
    <glyph glyph-name="tilde" unicode="&#x2dc;" horiz-adv-x="472" 
d="M102 702q19 58 71 58q31 0 69.5 -24t48.5 -24q21 0 29 24q2 9 11.5 13t20.5 0q9 -2 15.5 -11.5t2.5 -17.5q-19 -58 -71 -58q-31 0 -69.5 24t-48.5 24q-21 0 -29 -24q-2 -9 -11.5 -13t-20.5 0q-9 2 -15.5 11.5t-2.5 17.5z" />
    <glyph glyph-name="hungarumlaut" unicode="&#x2dd;" horiz-adv-x="324" 
d="M187 627q-13 5 -18.5 17t-0.5 24l30 65q5 13 18 18t27 0q13 -5 18 -17t0 -24l-30 -65q-5 -13 -17.5 -18t-26.5 0zM81 627q-13 5 -18 17t0 24l30 65q5 13 17.5 18t26.5 0q13 -5 18.5 -17t0.5 -24l-30 -65q-5 -13 -18 -18t-27 0z" />
    <glyph glyph-name="pi" unicode="&#x3c0;" horiz-adv-x="620" 
d="M401 99v412h-181v-511h-74v511h-126v68h580v-68h-125v-412q0 -18 16 -34t40 -16q17 0 30 6v-68q-20 -4 -30 -4q-57 0 -93.5 30.5t-36.5 85.5z" />
    <glyph glyph-name="endash" unicode="&#x2013;" horiz-adv-x="584" 
d="M38 289q0 14 10 23.5t24 9.5h441q14 0 23.5 -9.5t9.5 -23.5t-9.5 -24t-23.5 -10h-441q-14 0 -24 10t-10 24z" />
    <glyph glyph-name="emdash" unicode="&#x2014;" horiz-adv-x="840" 
d="M38 289q0 14 10 23.5t24 9.5h697q14 0 23.5 -9.5t9.5 -23.5t-9.5 -24t-23.5 -10h-697q-14 0 -24 10t-10 24z" />
    <glyph glyph-name="quoteleft" unicode="&#x2018;" horiz-adv-x="212" 
d="M130 721q-41 0 -41 -38v-37q8 3 17 3q23 0 39.5 -16.5t16.5 -39.5t-16.5 -39.5t-39.5 -16.5t-39.5 16.5t-16.5 39.5v90q0 76 80 76q20 0 20 -19t-20 -19z" />
    <glyph glyph-name="quoteright" unicode="&#x2019;" horiz-adv-x="212" 
d="M82 575q41 0 41 38v37q-7 -3 -17 -3q-23 0 -39.5 16.5t-16.5 39.5t16.5 39.5t39.5 16.5t39.5 -16.5t16.5 -39.5v-90q0 -76 -80 -76q-20 0 -20 19t20 19z" />
    <glyph glyph-name="quotesinglbase" unicode="&#x201a;" horiz-adv-x="212" 
d="M82 -80q41 0 41 38v37q-7 -3 -17 -3q-23 0 -39.5 16.5t-16.5 39.5t16.5 39.5t39.5 16.5t39.5 -16.5t16.5 -39.5v-90q0 -76 -80 -76q-20 0 -20 19t20 19z" />
    <glyph glyph-name="quotedblleft" unicode="&#x201c;" horiz-adv-x="345" 
d="M130 721q-41 0 -41 -38v-37q8 3 17 3q23 0 39.5 -16.5t16.5 -39.5t-16.5 -39.5t-39.5 -16.5t-39.5 16.5t-16.5 39.5v90q0 76 80 76q20 0 20 -19t-20 -19zM263 721q-41 0 -41 -38v-37q7 3 17 3q23 0 39.5 -16.5t16.5 -39.5t-16.5 -39.5t-39.5 -16.5t-39.5 16.5t-16.5 39.5
v90q0 76 80 76q20 0 20 -19t-20 -19z" />
    <glyph glyph-name="quotedblright" unicode="&#x201d;" horiz-adv-x="345" 
d="M215 575q41 0 41 38v37q-8 -3 -17 -3q-23 0 -39.5 16.5t-16.5 39.5t16.5 39.5t39.5 16.5t39.5 -16.5t16.5 -39.5v-90q0 -76 -80 -76q-20 0 -20 19t20 19zM82 575q41 0 41 38v37q-7 -3 -17 -3q-23 0 -39.5 16.5t-16.5 39.5t16.5 39.5t39.5 16.5t39.5 -16.5t16.5 -39.5v-90
q0 -76 -80 -76q-20 0 -20 19t20 19z" />
    <glyph glyph-name="quotedblbase" unicode="&#x201e;" horiz-adv-x="345" 
d="M215 -80q41 0 41 38v37q-8 -3 -17 -3q-23 0 -39.5 16.5t-16.5 39.5t16.5 39.5t39.5 16.5t39.5 -16.5t16.5 -39.5v-90q0 -76 -80 -76q-20 0 -20 19t20 19zM82 -80q41 0 41 38v37q-7 -3 -17 -3q-23 0 -39.5 16.5t-16.5 39.5t16.5 39.5t39.5 16.5t39.5 -16.5t16.5 -39.5v-90
q0 -76 -80 -76q-20 0 -20 19t20 19z" />
    <glyph glyph-name="dagger" unicode="&#x2020;" horiz-adv-x="540" 
d="M246 -68v599h-170q-10 0 -17 7t-7 17t7 17t17 7h170v153q0 10 8 18t18 8t18 -8t8 -18v-153h166q10 0 17 -7t7 -17t-7 -17t-17 -7h-166v-599q0 -10 -8 -18t-18 -8t-18 8t-8 18z" />
    <glyph glyph-name="daggerdbl" unicode="&#x2021;" horiz-adv-x="540" 
d="M246 133v398h-170q-10 0 -17 7t-7 17t7 17t17 7h170v153q0 10 8 18t18 8t18 -8t8 -18v-153h166q10 0 17 -7t7 -17t-7 -17t-17 -7h-166v-398h166q10 0 17 -7t7 -17t-7 -17t-17 -7h-166v-153q0 -10 -8 -18t-18 -8t-18 8t-8 18v153h-170q-10 0 -17 7t-7 17t7 17t17 7h170z
" />
    <glyph glyph-name="bullet" unicode="&#x2022;" horiz-adv-x="404" 
d="M202 188q-42 0 -72 29.5t-30 72.5q0 42 30 72t72 30q43 0 72.5 -30t29.5 -72q0 -43 -29.5 -72.5t-72.5 -29.5z" />
    <glyph glyph-name="ellipsis" unicode="&#x2026;" horiz-adv-x="800" 
d="M40 48q0 23 16.5 39.5t39.5 16.5t39.5 -16.5t16.5 -39.5t-16.5 -39.5t-39.5 -16.5t-39.5 16.5t-16.5 39.5zM344 48q0 23 16.5 39.5t39.5 16.5t39.5 -16.5t16.5 -39.5t-16.5 -39.5t-39.5 -16.5t-39.5 16.5t-16.5 39.5zM648 48q0 23 16.5 39.5t39.5 16.5t39.5 -16.5
t16.5 -39.5t-16.5 -39.5t-39.5 -16.5t-39.5 16.5t-16.5 39.5z" />
    <glyph glyph-name="perthousand" unicode="&#x2030;" horiz-adv-x="1130" 
d="M127 5q-23 16 -8 40l470 700q8 10 19.5 12t20.5 -5q23 -15 8 -40l-471 -699q-7 -10 -18 -12.5t-21 4.5zM392 595q0 -71 -52 -122t-124 -51q-71 0 -123.5 51t-52.5 122q0 70 52.5 121t123.5 51t123.5 -51t52.5 -121zM333 595q0 48 -34 82.5t-83 34.5q-47 0 -82 -34.5
t-35 -82.5t35 -83t82 -35q49 0 83 34.5t34 83.5zM708 157q0 -71 -52 -122t-124 -51q-71 0 -123.5 51t-52.5 122q0 70 52.5 121t123.5 51t123.5 -51t52.5 -121zM649 157q0 48 -34 82.5t-83 34.5q-47 0 -82 -34.5t-35 -82.5t35 -83t82 -35q49 0 83 34.5t34 83.5zM1090 157
q0 -71 -52 -122t-124 -51q-71 0 -123.5 51t-52.5 122q0 70 52.5 121t123.5 51t123.5 -51t52.5 -121zM1031 157q0 48 -34 82.5t-83 34.5q-47 0 -82 -34.5t-35 -82.5t35 -83t82 -35q49 0 83 34.5t34 83.5z" />
    <glyph glyph-name="guilsinglleft" unicode="&#x2039;" horiz-adv-x="261" 
d="M32 290q0 15 12.5 28.5t69.5 63.5q34 30 56 49q17 16 38 6t21 -33q0 -12 -15 -29l-99 -85l99 -86q15 -13 15 -28q0 -22 -21 -32t-38 5q-119 105 -127 114q-11 13 -11 27z" />
    <glyph glyph-name="guilsinglright" unicode="&#x203a;" horiz-adv-x="261" 
d="M229 290q0 -15 -12.5 -28.5t-69.5 -63.5q-34 -30 -56 -49q-17 -15 -38 -5t-21 32q0 15 15 28l99 86l-99 85q-15 17 -15 29q0 23 21 33t38 -6q119 -105 127 -114q11 -13 11 -27z" />
    <glyph glyph-name="fraction" unicode="&#x2044;" horiz-adv-x="497" 
d="M82 13l304 736q7 14 21 8q15 -6 8 -20l-304 -736q-8 -14 -20 -9q-16 6 -9 21z" />
    <glyph glyph-name="Euro" unicode="&#x20ac;" horiz-adv-x="729" 
d="M28 306q0 14 10 24t24 10h60q-4 34 0 69h-60q-14 0 -24 10t-10 24t10 24t24 10h70q59 290 308 290q58 0 104.5 -19t76 -47.5t59.5 -72.5q14 -16 6 -36t-32 -20q-20 0 -30 16q-37 57 -76.5 85t-107.5 28q-98 0 -152.5 -56.5t-79.5 -167.5h354q14 0 24 -10t10 -24t-10 -24
t-24 -10h-366q-5 -34 0 -69h328q14 0 24 -10t10 -24t-10 -24t-24 -10h-316q25 -110 79.5 -166.5t152.5 -56.5q69 0 108.5 28t75.5 85q10 16 30 16q24 0 32 -20t-6 -36q-43 -68 -97.5 -103.5t-142.5 -35.5q-249 0 -308 289h-70q-14 0 -24 10t-10 24z" />
    <glyph glyph-name="trademark" unicode="&#x2122;" horiz-adv-x="361" 
d="M321 750v-150h-14v118l-54 -118h-13l-55 118v-118h-14v150h14l61 -132l61 132h14zM158 736h-52v-136h-14v136h-52v14h118v-14z" />
    <glyph glyph-name="Omega" unicode="&#x2126;" horiz-adv-x="871" 
d="M831 375q0 -189 -171 -303v-3h151v-69h-260q-2 0 -2 -1v72q92 35 149 118t57 186q0 135 -93 230.5t-226 95.5t-226.5 -96t-93.5 -230q0 -104 57 -186.5t151 -117.5v-72q-1 1 -3 1h-260v69h151v3q-76 50 -124 126t-48 177q0 162 116 277t280 115q163 0 279 -115t116 -277z
" />
    <glyph glyph-name="partialdiff" unicode="&#x2202;" horiz-adv-x="660" 
d="M620 329q0 -158 -78 -252t-214 -94q-122 0 -205 78.5t-83 202.5q0 117 77.5 198t197.5 81q73 0 131 -32.5t94 -85.5l3 2q0 36 -8 72t-26.5 72.5t-46.5 65t-71.5 46t-96.5 17.5q-80 0 -151 -45v73q29 16 73 27t78 11q326 0 326 -437zM541 264q0 90 -61.5 152t-151.5 62
q-89 0 -150.5 -62.5t-61.5 -151.5q0 -90 61.5 -152.5t150.5 -62.5q90 0 151.5 62.5t61.5 152.5z" />
    <glyph glyph-name="Delta" unicode="&#x2206;" horiz-adv-x="592" 
d="M20 0l241 750h69l242 -750h-552zM114 68h364l-183 565z" />
    <glyph glyph-name="product" unicode="&#x220f;" horiz-adv-x="620" 
d="M600 682h-125v-682h-74v682h-181v-682h-74v682h-126v68h580v-68z" />
    <glyph glyph-name="summation" unicode="&#x2211;" horiz-adv-x="551" 
d="M123 69h408v-69h-511v69l307 306l-307 306v69h511v-69h-408l307 -306z" />
    <glyph glyph-name="minus" unicode="&#x2212;" horiz-adv-x="679" 
d="M42 289q0 14 9.5 24t23.5 10h528q14 0 24 -10t10 -24t-10 -23.5t-24 -9.5h-528q-14 0 -23.5 9.5t-9.5 23.5z" />
    <glyph glyph-name="radical" unicode="&#x221a;" horiz-adv-x="521" 
d="M155 267l75 -191h3l187 674h71l-210 -750h-94l-72 185l-28 -65l-57 27l50 120h75z" />
    <glyph glyph-name="infinity" unicode="&#x221e;" horiz-adv-x="706" 
d="M353 330q28 44 67 73t82 29q63 0 108.5 -41t45.5 -101q0 -61 -45.5 -102t-108.5 -41q-84 0 -149 99q-65 -99 -149 -99q-63 0 -108.5 41t-45.5 102q0 60 45.5 101t108.5 41q43 0 82 -29t67 -73zM600 290q0 39 -29.5 64.5t-69.5 25.5q-55 0 -110 -92q55 -89 110 -89
q40 0 69.5 26t29.5 65zM106 290q0 -39 29.5 -65t69.5 -26q55 0 110 89q-55 92 -110 92q-40 0 -69.5 -25.5t-29.5 -64.5z" />
    <glyph glyph-name="integral" unicode="&#x222b;" horiz-adv-x="296" 
d="M20 -105h27q28 0 46 16.5t18 44.5v667q0 60 39.5 93.5t100.5 33.5h25v-66h-25q-28 0 -47 -16.5t-19 -44.5v-667q0 -59 -39.5 -93t-98.5 -34h-27v66z" />
    <glyph glyph-name="approxequal" unicode="&#x2248;" horiz-adv-x="678" 
d="M339 409q39 -37 109.5 -38.5t142.5 26.5q13 4 25.5 -2.5t17.5 -19.5q4 -13 -2.5 -25t-20.5 -17q-201 -64 -272 7q-39 37 -109.5 38.5t-142.5 -26.5q-13 -4 -25.5 2.5t-17.5 19.5q-4 13 2.5 25t20.5 17q201 64 272 -7zM339 238q39 -37 109.5 -38.5t142.5 26.5
q13 4 25.5 -2.5t17.5 -19.5q4 -13 -2.5 -25t-20.5 -17q-201 -64 -272 7q-39 37 -109.5 38.5t-142.5 -26.5q-13 -4 -25.5 2.5t-17.5 19.5q-4 13 2.5 25t20.5 17q201 64 272 -7z" />
    <glyph glyph-name="notequal" unicode="&#x2260;" horiz-adv-x="680" 
d="M42 205q0 14 10 24t24 10h166l102 102h-268q-14 0 -24 10t-10 24t10 23.5t24 9.5h337l90 92q10 10 24 10t24 -10q23 -24 -1 -48l-42 -44h96q14 0 24 -9.5t10 -23.5t-10 -24t-24 -10h-165l-102 -102h267q14 0 24 -10t10 -24t-10 -23.5t-24 -9.5h-334l-94 -94
q-10 -10 -23 -10t-23 10q-24 24 -1 48l46 46h-99q-14 0 -24 9.5t-10 23.5z" />
    <glyph glyph-name="lessequal" unicode="&#x2264;" horiz-adv-x="423" 
d="M372 261q13 -7 17 -20.5t-4 -25.5q-7 -12 -20 -16.5t-26 1.5l-288 160q-19 10 -19 32t19 32l288 160q13 6 26 1.5t20 -16.5q8 -12 4 -25.5t-17 -20.5l-244 -131zM32 33q0 14 10 24t24 10h290q14 0 24 -10t10 -24t-10 -23.5t-24 -9.5h-290q-14 0 -24 9.5t-10 23.5z" />
    <glyph glyph-name="greaterequal" unicode="&#x2265;" horiz-adv-x="423" 
d="M51 261l244 131l-244 131q-13 7 -17 20.5t4 25.5q7 12 20 16.5t26 -1.5l288 -160q19 -10 19 -32t-19 -32l-288 -160q-13 -6 -26 -1.5t-20 16.5q-8 12 -4 25.5t17 20.5zM391 33q0 -14 -10 -23.5t-24 -9.5h-290q-14 0 -24 9.5t-10 23.5t10 24t24 10h290q14 0 24 -10t10 -24
z" />
    <glyph glyph-name="lozenge" unicode="&#x25ca;" horiz-adv-x="557" 
d="M244 750h69l204 -375l-204 -375h-69l-204 375zM279 680l-161 -305l161 -306l160 306z" />
    <glyph glyph-name="uniF8FF" unicode="&#xf8ff;" horiz-adv-x="500" 
 />
    <glyph glyph-name="ff" unicode="&#xfb00;" horiz-adv-x="649" 
d="M12 545q0 14 10 24t24 10h42v56q0 62 41.5 97t100.5 35q30 0 62.5 -14.5t32.5 -38.5q0 -14 -9.5 -23.5t-23.5 -9.5q-13 0 -23 8q-15 11 -40 11q-67 0 -67 -65v-56h240v56q0 62 41.5 97t100.5 35q30 0 62.5 -14.5t32.5 -38.5q0 -14 -9.5 -23.5t-23.5 -9.5q-13 0 -23 8
q-15 11 -40 11q-67 0 -67 -65v-56h93q14 0 24 -10t10 -24t-10 -24t-24 -10h-93v-482q0 -15 -11 -26t-26 -11t-26 11t-11 26v482h-240v-482q0 -15 -11 -26t-26 -11t-26 11t-11 26v482h-42q-14 0 -24 10t-10 24z" />
    <glyph glyph-name="fi" unicode="&#xfb01;" horiz-adv-x="537" 
d="M403 29v482h-241v-482q0 -15 -11 -26t-26 -11t-26 11t-11 26v482h-42q-14 0 -24 10t-10 24t10 24t24 10h42v56q0 62 41.5 97t100.5 35q30 0 62.5 -14.5t32.5 -38.5q0 -14 -9.5 -23.5t-23.5 -9.5q-13 0 -23 8q-15 11 -40 11q-67 0 -67 -65v-56h278q15 0 26 -11t11 -26
v-513q0 -15 -11 -26t-26 -11t-26 11t-11 26zM389 716q0 21 15 36t36 15t36 -15t15 -36t-15 -36t-36 -15t-36 15t-15 36z" />
    <glyph glyph-name="fl" unicode="&#xfb02;" horiz-adv-x="529" 
d="M162 623v-44h93q14 0 24 -10t10 -24t-10 -24t-24 -10h-93v-482q0 -15 -11 -26t-26 -11t-26 11t-11 26v482h-42q-14 0 -24 10t-10 24t10 24t24 10h42v44q0 73 55 120.5t135 47.5t135.5 -47.5t55.5 -120.5v-594q0 -15 -11 -26t-26 -11t-26 11t-11 26v594q0 47 -34 76.5
t-83 29.5t-82.5 -29.5t-33.5 -76.5z" />
    <glyph glyph-name="ffi" unicode="&#xfb03;" horiz-adv-x="851" 
d="M717 29v482h-241v-482q0 -15 -11 -26t-26 -11t-26 11t-11 26v482h-240v-482q0 -15 -11 -26t-26 -11t-26 11t-11 26v482h-42q-14 0 -24 10t-10 24t10 24t24 10h42v56q0 62 41.5 97t100.5 35q30 0 62.5 -14.5t32.5 -38.5q0 -14 -9.5 -23.5t-23.5 -9.5q-13 0 -23 8
q-15 11 -40 11q-67 0 -67 -65v-56h240v56q0 62 41.5 97t100.5 35q30 0 62.5 -14.5t32.5 -38.5q0 -14 -9.5 -23.5t-23.5 -9.5q-13 0 -23 8q-15 11 -40 11q-67 0 -67 -65v-56h278q15 0 26 -11t11 -26v-513q0 -15 -11 -26t-26 -11t-26 11t-11 26zM703 716q0 21 15 36t36 15
t36 -15t15 -36t-15 -36t-36 -15t-36 15t-15 36z" />
    <glyph glyph-name="ffl" unicode="&#xfb04;" horiz-adv-x="834" 
d="M467 623v-44h93q14 0 24 -10t10 -24t-10 -24t-24 -10h-93v-482q0 -15 -11 -26t-26 -11t-26 11t-11 26v482h-231v-482q0 -15 -11 -26t-26 -11t-26 11t-11 26v482h-42q-14 0 -24 10t-10 24t10 24t24 10h42v56q0 62 41.5 97t100.5 35q30 0 62.5 -14.5t32.5 -38.5
q0 -14 -9.5 -23.5t-23.5 -9.5q-13 0 -23 8q-15 11 -40 11q-67 0 -67 -65v-56h231v44q0 73 55 120.5t135 47.5t135.5 -47.5t55.5 -120.5v-594q0 -15 -11 -26t-26 -11t-26 11t-11 26v594q0 47 -34 76.5t-83 29.5t-82.5 -29.5t-33.5 -76.5z" />
    <glyph glyph-name="Publisher" horiz-adv-x="693" 
d="M653 290q0 -128 -89.5 -217.5t-217.5 -89.5q-127 0 -216.5 90t-89.5 217t89.5 216.5t216.5 89.5t217 -89.5t90 -216.5zM617 290q0 112 -79 191t-192 79q-112 0 -191 -79t-79 -191t79 -191.5t191 -79.5q113 0 192 79.5t79 191.5zM215 121v329q0 13 10.5 21.5t25.5 8.5h129
q55 0 93.5 -36.5t38.5 -91.5q0 -54 -38.5 -91t-93.5 -37h-121v-103q0 -8 -6 -14t-16 -6t-16 6t-6 14zM467 352q0 34 -25 58.5t-58 24.5h-125v-165h125q33 0 58 24t25 58z" />
    <glyph glyph-name="tt" horiz-adv-x="635" 
d="M12 545q0 14 10 24t24 10h42v102q0 15 11 26t26 11t26 -11t11 -26v-102h232v102q0 15 11 26t26 11t26 -11t11 -26v-102h93q14 0 24 -10t10 -24t-10 -24t-24 -10h-93v-399q0 -58 59 -58q14 0 32 12q11 8 23 8q14 0 23.5 -9.5t9.5 -23.5q0 -24 -30 -38.5t-57 -14.5
q-58 0 -96 32.5t-38 91.5v399h-232v-399q0 -58 59 -58q14 0 32 12q11 8 23 8q14 0 23.5 -9.5t9.5 -23.5q0 -24 -30 -38.5t-57 -14.5q-58 0 -96 32.5t-38 91.5v399h-42q-14 0 -24 10t-10 24z" />
    <glyph glyph-name="ft" horiz-adv-x="635" 
d="M12 545q0 14 10 24t24 10h42v56q0 62 41.5 97t100.5 35q30 0 62.5 -14.5t32.5 -38.5q0 -14 -9.5 -23.5t-23.5 -9.5q-13 0 -23 8q-15 11 -40 11q-67 0 -67 -65v-56h232v102q0 15 11 26t26 11t26 -11t11 -26v-102h93q14 0 24 -10t10 -24t-10 -24t-24 -10h-93v-399
q0 -58 59 -58q14 0 32 12q11 8 23 8q14 0 23.5 -9.5t9.5 -23.5q0 -24 -30 -38.5t-57 -14.5q-58 0 -96 32.5t-38 91.5v399h-232v-482q0 -15 -11 -26t-26 -11t-26 11t-11 26v482h-42q-14 0 -24 10t-10 24z" />
    </font>
</defs>
</svg>
